# Rhino

mtllib MACBOOK_COLLIDER.mtl
g Layer0
o object_1
usemtl Layer_Layer0
v 0 0 0
v 0 0.01269999984651804 0
v 0 0 -0.133477121591568
v 0 0.01269999984651804 -0.133477121591568
v 0 0 -0.266954243183136
v 0 0.01269999984651804 -0.266954243183136
v 0.1964690089225769 0 0
v 0.1964690089225769 0.01269999984651804 0
v 0.1964690089225769 0 -0.266954243183136
v 0.1964690089225769 0.01269999984651804 -0.266954243183136
v 0.3929380178451538 0 0
v 0.3929380178451538 0.01269999984651804 0
v 0.3929380178451538 0 -0.133477121591568
v 0.3929380178451538 0.01269999984651804 -0.133477121591568
v 0.3929380178451538 0 -0.266954243183136
v 0.3929380178451538 0.01269999984651804 -0.266954243183136
vt 0.09368254989385605 0
vt 0.07136054337024689 0
vt 0.09368254989385605 0.7359651327133179
vt 0.07136054337024689 0.7359651327133179
vt 0.09368254989385605 0.3679825663566589
vt 0.07136054337024689 0.3679825663566589
vt 0.04610885307192802 0
vt 0.02378684841096401 0
vt 0.04610885307192802 0.5
vt 0.02378684841096401 0.5
vt 0.04610885307192802 0.25
vt 0.02378684841096401 0.25
vt 0.06989569962024689 0
vt 0.04757369682192802 0
vt 0.06989569962024689 0.7359651327133179
vt 0.04757369682192802 0.7359651327133179
vt 0.06989569962024689 0.3679825663566589
vt 0.04757369682192802 0.3679825663566589
vt 0.02232200466096401 0
vt 0 0
vt 0.02232200466096401 0.5
vt 0 0.5
vt 0.02232200466096401 0.25
vt 0 0.25
vt 0.8296476602554321 0.5
vt 0.09514739364385605 0.5
vt 0.8296476602554321 0.99853515625
vt 0.09514739364385605 0.99853515625
vt 0.4623975157737732 0.5
vt 0.09514739364385605 0.749267578125
vt 0.4623975157737732 0.99853515625
vt 0.8296476602554321 0.749267578125
vt 0.09514739364385605 0
vt 0.09514739364385605 0.49853515625
vt 0.8296476602554321 0
vt 0.8296476602554321 0.49853515625
vt 0.4623975157737732 0
vt 0.8296476602554321 0.249267578125
vt 0.4623975157737732 0.49853515625
vt 0.09514739364385605 0.249267578125
vn 0 0 1
vn 0 0 1
vn 0 0 1
vn 0 0 1
vn 0 0 1
vn 0 0 1
vn 1 0 0
vn 1 0 0
vn 1 0 0
vn 1 0 0
vn 1 0 0
vn 1 0 0
vn 0 0 -1
vn 0 0 -1
vn 0 0 -1
vn 0 0 -1
vn 0 0 -1
vn 0 0 -1
vn -1 0 0
vn -1 0 0
vn -1 0 0
vn -1 0 0
vn -1 0 0
vn -1 0 0
vn 0 -1 0
vn 0 -1 0
vn 0 -1 0
vn 0 -1 0
vn 0 -1 0
vn 0 -1 0
vn 0 -1 0
vn 0 -1 0
vn 0 1 0
vn 0 1 0
vn 0 1 0
vn 0 1 0
vn 0 1 0
vn 0 1 0
vn 0 1 0
vn 0 1 0
f 2/2/2 1/1/1 7/5/5 8/6/6
f 11/3/3 12/4/4 8/6/6 7/5/5
f 12/8/8 11/7/7 13/11/11 14/12/12
f 15/9/9 16/10/10 14/12/12 13/11/11
f 16/14/14 15/13/13 9/17/17 10/18/18
f 5/15/15 6/16/16 10/18/18 9/17/17
f 6/20/20 5/19/19 3/23/23 4/24/24
f 1/21/21 2/22/22 4/24/24 3/23/23
f 7/29/29 1/25/25 3/32/32
f 7/29/29 13/30/30 11/26/26
f 9/31/31 7/29/29 3/32/32
f 7/29/29 9/31/31 13/30/30
f 9/31/31 15/28/28 13/30/30
f 5/27/27 9/31/31 3/32/32
f 4/40/40 2/33/33 8/37/37
f 4/40/40 10/39/39 6/34/34
f 10/39/39 4/40/40 8/37/37
f 8/37/37 14/38/38 10/39/39
f 14/38/38 16/36/36 10/39/39
f 12/35/35 14/38/38 8/37/37
