# Rhino

o object_1
v -16.79669189453125 0 -38.2972297668457
v -16.79669189453125 5.465804576873779 -38.2972297668457
v -16.79669189453125 0 -49.36862945556641
v -16.79669189453125 0.2213597297668457 -49.36862945556641
v -16.79669189453125 5.244444847106934 -49.36862945556641
v -16.79669189453125 5.465804576873779 -49.36862945556641
v -16.79669189453125 0 -444.4400329589844
v -16.79669189453125 5.465804576873779 -444.4400329589844
v 0 0 0
v 0 5.465804576873779 0
v 0 0 -38.2972297668457
v 0 5.465804576873779 -38.2972297668457
v 34.4066162109375 0 0
v 34.4066162109375 5.465804576873779 0
v 34.4066162109375 0 -38.2972297668457
v 34.4066162109375 5.465804576873779 -38.2972297668457
v 290.2747192382813 0 -38.2972297668457
v 290.2747192382813 5.465804576873779 -38.2972297668457
v 290.2747192382813 0 -444.4400329589844
v 290.2747192382813 5.465804576873779 -444.4400329589844
vt 0.5934766530990601 0.6442025899887085
vt 0.5934766530990601 0.7042900919914246
vt 0.9937316179275513 0.6442025899887085
vt 0.9937316179275513 0.00697316974401474
vt 0.5133792757987976 0.00697316974401474
vt 0.5133792757987976 0.6442025899887085
vt 0.5133792757987976 0.6268317699432373
vt 0.5396543741226196 0.6442025899887085
vt 0.5396543741226196 0.7042900919914246
vt 0.1020523756742477 0.6943302750587463
vt 0.1020523756742477 0.7542940378189087
vt 0.5023073554039002 0.6943302750587463
vt 0.5023073554039002 0.05841319635510445
vt 0.0219549871981144 0.05841319635510445
vt 0.0219549871981144 0.6943302750587463
vt 0.0219549871981144 0.6769952178001404
vt 0.0482301265001297 0.6943302750587463
vt 0.0482301265001297 0.7542940378189087
vt 0 0.02572719380259514
vt 0 0.03283808007836342
vt 0.06008753925561905 0.02572719380259514
vt 0.06008753925561905 0.03283808007836342
vt 0 0.008575730957090855
vt 0 0.01568661816418171
vt 0.0539831630885601 0.008575730957090855
vt 0.0539831630885601 0.01568661816418171
vt 0 0.01715146191418171
vt 0 0.02426235005259514
vt 0.06008753925561905 0.01715146191418171
vt 0.06008753925561905 0.02426235005259514
vt 0 0
vt 0 0.007110887672752142
vt 0.02635369636118412 0
vt 0.02635369636118412 0.007110887672752142
vt 0.01568661816418171 0.05145438760519028
vt 0.008575730957090855 0.05145438760519028
vt 0.01568661816418171 0.688683807849884
vt 0.008575730957090855 0.688683807849884
vt 0.01568661816418171 0.06435796618461609
vt 0.008575730957090855 0.06435796618461609
vt 0.01539863552898169 0.06435796618461609
vt 0.008863715454936028 0.06435796618461609
vt 0 0.042878657579422
vt 0 0.04998954385519028
vt 0.4817884862422943 0.042878657579422
vt 0.4817884862422943 0.04998954385519028
vt 0.007110887672752142 0.05145438760519028
vt 0 0.05145438760519028
vt 0.007110887672752142 0.688683807849884
vt 0 0.688683807849884
vt 0 0.03430292382836342
vt 0 0.041413813829422
vt 0.4014516472816467 0.03430292382836342
vt 0.4014516472816467 0.041413813829422
vn 0 1 0
vn 0 1 0
vn 0 1 0
vn 0 1 0
vn 0 1 0
vn 0 1 0
vn 0 1 0
vn 0 1 0
vn 0 1 0
vn 0 -1 0
vn 0 -1 0
vn 0 -1 0
vn 0 -1 0
vn 0 -1 0
vn 0 -1 0
vn 0 -1 0
vn 0 -1 0
vn 0 -1 0
vn 1 0 0
vn 1 0 0
vn 1 0 0
vn 1 0 0
vn 0 0 1
vn 0 0 1
vn 0 0 1
vn 0 0 1
vn -1 0 0
vn -1 0 0
vn -1 0 0
vn -1 0 0
vn 0 0 1
vn 0 0 1
vn 0 0 1
vn 0 0 1
vn -1 0 0
vn -1 0 0
vn -1 0 0
vn -1 0 0
vn -1 0 0
vn -1 0 0
vn -1 0 -1.087741579064945e-16
vn -1 0 0
vn 0 0 -1
vn 0 0 -1
vn 0 0 -1
vn 0 0 -1
vn 1 0 0
vn 1 0 0
vn 1 0 0
vn 1 0 0
vn 0 0 1
vn 0 0 1
vn 0 0 1
vn 0 0 1
f 16/1/1 6/7/7 12/8/8
f 6/7/7 2/6/6 12/8/8
f 16/1/1 8/5/5 6/7/7
f 18/3/3 20/4/4 8/5/5 16/1/1
f 10/9/9 14/2/2 16/1/1 12/8/8
f 15/10/10 11/17/17 3/16/16
f 3/16/16 11/17/17 1/15/15
f 15/10/10 3/16/16 7/14/14
f 17/12/12 15/10/10 7/14/14 19/13/13
f 9/18/18 11/17/17 15/10/10 13/11/11
f 15/20/20 16/19/19 14/21/21 13/22/22
f 13/24/24 14/23/23 10/25/25 9/26/26
f 9/28/28 10/27/27 12/29/29 11/30/30
f 11/32/32 12/31/31 2/33/33 1/34/34
f 5/41/41 4/42/42 1/36/36 2/35/35
f 6/39/39 5/41/41 2/35/35
f 3/40/40 1/36/36 4/42/42
f 4/42/42 5/41/41 8/37/37 7/38/38
f 7/38/38 3/40/40 4/42/42
f 8/37/37 5/41/41 6/39/39
f 7/44/44 8/43/43 20/45/45 19/46/46
f 19/48/48 20/47/47 18/49/49 17/50/50
f 17/52/52 18/51/51 16/53/53 15/54/54
