# Rhino

o object_1
v -8.79669189453125 5.497618198394775 -49.36862945556641
v -8.79669189453125 207.9976196289063 -49.36862945556641
v -8.79669189453125 5.497618198394775 -54.86862945556641
v -8.79669189453125 207.9976196289063 -54.86862945556641
v -0.79669189453125 5.497618198394775 -49.36862945556641
v -0.79669189453125 85.99761962890625 -49.36862945556641
v -0.79669189453125 5.497618198394775 -54.86862945556641
v -0.79669189453125 85.99761962890625 -54.86862945556641
v 35.20330810546875 5.497618198394775 -49.36862945556641
v 35.20330810546875 85.99761962890625 -49.36862945556641
v 35.20330810546875 5.497618198394775 -54.86862945556641
v 35.20330810546875 85.99761962890625 -54.86862945556641
v 206.2033081054688 36.49674606323242 -49.36862945556641
v 206.2033081054688 79.23359680175781 -49.36862945556641
v 206.2033081054688 142.9967498779297 -49.36862945556641
v 206.2033081054688 185.7335968017578 -49.36862945556641
v 206.2033081054688 36.49674606323242 -54.86862945556641
v 206.2033081054688 79.23359680175781 -54.86862945556641
v 206.2033081054688 142.9967498779297 -54.86862945556641
v 206.2033081054688 185.7335968017578 -54.86862945556641
v 252.7033081054688 36.49674606323242 -49.36862945556641
v 252.7033081054688 79.23359680175781 -49.36862945556641
v 252.7033081054688 142.9967498779297 -49.36862945556641
v 252.7033081054688 185.7335968017578 -49.36862945556641
v 252.7033081054688 36.49674606323242 -54.86862945556641
v 252.7033081054688 79.23359680175781 -54.86862945556641
v 252.7033081054688 142.9967498779297 -54.86862945556641
v 252.7033081054688 185.7335968017578 -54.86862945556641
v 279.2033081054688 5.497618198394775 -49.36862945556641
v 279.2033081054688 207.9976196289063 -49.36862945556641
v 279.2033081054688 5.497618198394775 -54.86862945556641
v 279.2033081054688 207.9976196289063 -54.86862945556641
vt 0.1398843973875046 0.5317919254302979
vt 0.1398843973875046 0.99853515625
vt 0.8043155074119568 0.5317919254302979
vt 0.8043155074119568 0.99853515625
vt 0.2413946986198425 0.99853515625
vt 0.2413946986198425 0.8129903078079224
vt 0.1583408117294312 0.8129903078079224
vt 0.1583408117294312 0.99853515625
vt 0.7431786060333252 0.6816127300262451
vt 0.7431786060333252 0.5831083655357361
vt 0.6359006762504578 0.6816127300262451
vt 0.6359006762504578 0.5831083655357361
vt 0.7431786060333252 0.9270851016044617
vt 0.7431786060333252 0.8285807371139526
vt 0.6359006762504578 0.9270851016044617
vt 0.6359006762504578 0.8285807371139526
vt 0.1398843973875046 0.06358381360769272
vt 0.1398843973875046 0.5303270816802979
vt 0.8043155074119568 0.06358381360769272
vt 0.8043155074119568 0.5303270816802979
vt 0.2413946986198425 0.5303270816802979
vt 0.2413946986198425 0.3447822332382202
vt 0.1583408117294312 0.3447822332382202
vt 0.1583408117294312 0.5303270816802979
vt 0.6359006762504578 0.2134046405553818
vt 0.7431786060333252 0.2134046405553818
vt 0.7431786060333252 0.1149002686142921
vt 0.6359006762504578 0.1149002686142921
vt 0.6359006762504578 0.4588769972324371
vt 0.7431786060333252 0.4588769972324371
vt 0.7431786060333252 0.3603726327419281
vt 0.6359006762504578 0.3603726327419281
vt 0.1398843973875046 0.01271676272153854
vt 0.1398843973875046 0.02396868169307709
vt 0.7040462493896484 0.01271676272153854
vt 0.7040462493896484 0.02396868169307709
vt 0.1398843973875046 0
vt 0.1398843973875046 0.01125191897153854
vt 0.6080924868583679 0
vt 0.6080924868583679 0.01125191897153854
vt 0.1384195536375046 0
vt 0.1271676272153854 0
vt 0.1384195536375046 0.665895938873291
vt 0.1271676272153854 0.665895938873291
vt 0.1398843973875046 0.05086705088615418
vt 0.1398843973875046 0.06211896985769272
vt 0.6080924868583679 0.05086705088615418
vt 0.6080924868583679 0.06211896985769272
vt 0.08901733905076981 0
vt 0.08901733905076981 0.186127170920372
vt 0.1002692580223084 0.186127170920372
vt 0.1002692580223084 0
vt 0.07630057632923126 0
vt 0.08755249530076981 0
vt 0.08755249530076981 0.186127170920372
vt 0.07630057632923126 0.186127170920372
vt 0.06211896985769272 0
vt 0.05086705088615418 0
vt 0.06211896985769272 0.01849710941314697
vt 0.05086705088615418 0.01849710941314697
vt 0.07483573257923126 0
vt 0.07483573257923126 0.08323699235916138
vt 0.06358381360769272 0.08323699235916138
vt 0.06358381360769272 0
vt 0.1144508644938469 0
vt 0.1144508644938469 0.09881351888179779
vt 0.1257027834653854 0
vt 0.1257027834653854 0.09881351888179779
vt 0.1017341017723084 0
vt 0.1017341017723084 0.09881351888179779
vt 0.1129860207438469 0
vt 0.1129860207438469 0.09881351888179779
vt 0.03815028816461563 0
vt 0.03815028816461563 0.1075144484639168
vt 0.04940220713615418 0
vt 0.04940220713615418 0.1075144484639168
vt 0.03668544441461563 0
vt 0.02543352544307709 0
vt 0.03668544441461563 0.1075144484639168
vt 0.02543352544307709 0.1075144484639168
vt 0.01271676272153854 0
vt 0.01271676272153854 0.09881351888179779
vt 0.02396868169307709 0
vt 0.02396868169307709 0.09881351888179779
vt 0 0
vt 0 0.09881351888179779
vt 0.01125191897153854 0
vt 0.01125191897153854 0.09881351888179779
vt 0.2473988384008408 0.03815028816461563
vt 0.1398843973875046 0.03815028816461563
vt 0.2473988384008408 0.04940220713615418
vt 0.1398843973875046 0.04940220713615418
vt 0.1398843973875046 0.02543352544307709
vt 0.1398843973875046 0.03668544441461563
vt 0.2473988384008408 0.02543352544307709
vt 0.2473988384008408 0.03668544441461563
vn 0 0 -1
vn 0 0 -1
vn 0 0 -1
vn 0 0 -1
vn 0 0 -1
vn 0 0 -1
vn 0 0 -1
vn 0 0 -1
vn 0 0 -1
vn 0 0 -1
vn 0 0 -1
vn 0 0 -1
vn 0 0 -1
vn 0 0 -1
vn 0 0 -1
vn 0 0 -1
vn 0 0 1
vn 0 0 1
vn 0 0 1
vn 0 0 1
vn 0 0 1
vn 0 0 1
vn 0 0 1
vn 0 0 1
vn 0 0 1
vn 0 0 1
vn 0 0 1
vn 0 0 1
vn 0 0 1
vn 0 0 1
vn 0 0 1
vn 0 0 1
vn 0 -1 0
vn 0 -1 0
vn 0 -1 0
vn 0 -1 0
vn -1 0 0
vn -1 0 0
vn -1 0 0
vn -1 0 0
vn 0 1 0
vn 0 1 0
vn 0 1 0
vn 0 1 0
vn 1 0 0
vn 1 0 0
vn 1 0 0
vn 1 0 0
vn -1 0 -1.720798121975048e-16
vn -1 0 0
vn -1 0 0
vn -1 0 -1.720798121975048e-16
vn 1 0 5.377494131172026e-18
vn 1 0 5.377494131172026e-18
vn 1 0 0
vn 1 0 0
vn 0 -1 0
vn 0 -1 0
vn 0 -1 0
vn 0 -1 0
vn 0 -1 0
vn 0 -1 0
vn 0 -1 0
vn 0 -1 0
vn -1 0 0
vn -1 0 0
vn -1 0 0
vn -1 0 0
vn 1 0 0
vn 1 0 0
vn 1 0 0
vn 1 0 0
vn 0 1 0
vn 0 1 0
vn 0 1 0
vn 0 1 0
vn 0 -1 0
vn 0 -1 0
vn 0 -1 0
vn 0 -1 0
vn -1 0 0
vn -1 0 0
vn -1 0 0
vn -1 0 0
vn 1 0 0
vn 1 0 0
vn 1 0 0
vn 1 0 0
vn 0 1 0
vn 0 1 0
vn 0 1 0
vn 0 1 0
vn 0 -1 0
vn 0 -1 0
vn 0 -1 0
vn 0 -1 0
f 3/2/2 4/1/1 8/7/7
f 4/1/1 12/6/6 8/7/7
f 4/1/1 20/12/12 19/11/11
f 20/12/12 4/1/1 32/3/3
f 19/11/11 12/6/6 4/1/1
f 7/8/8 3/2/2 8/7/7
f 11/5/5 12/6/6 18/16/16 17/15/15
f 18/16/16 12/6/6 19/11/11
f 18/16/16 19/11/11 27/9/9 26/14/14
f 26/14/14 27/9/9 32/3/3
f 28/10/10 32/3/3 27/9/9
f 32/3/3 28/10/10 20/12/12
f 17/15/15 25/13/13 31/4/4
f 26/14/14 31/4/4 25/13/13
f 31/4/4 26/14/14 32/3/3
f 11/5/5 17/15/15 31/4/4
f 1/18/18 6/23/23 2/17/17
f 2/17/17 6/23/23 10/22/22
f 2/17/17 15/25/25 16/28/28
f 16/28/28 30/19/19 2/17/17
f 15/25/25 2/17/17 10/22/22
f 5/24/24 6/23/23 1/18/18
f 9/21/21 13/29/29 14/32/32 10/22/22
f 14/32/32 15/25/25 10/22/22
f 14/32/32 22/31/31 23/26/26 15/25/25
f 22/31/31 30/19/19 23/26/26
f 24/27/27 23/26/26 30/19/19
f 30/19/19 16/28/28 24/27/27
f 13/29/29 29/20/20 21/30/30
f 22/31/31 21/30/30 29/20/20
f 29/20/20 30/19/19 22/31/31
f 9/21/21 29/20/20 13/29/29
f 31/34/34 29/33/33 9/35/35 11/36/36
f 3/38/38 1/37/37 2/39/39 4/40/40
f 4/42/42 2/41/41 30/43/43 32/44/44
f 32/46/46 30/45/45 29/47/47 31/48/48
f 10/50/50 12/51/51 11/52/52 9/49/49
f 8/56/56 6/55/55 5/54/54 7/53/53
f 7/58/58 5/57/57 1/59/59 3/60/60
f 8/64/64 12/63/63 10/62/62 6/61/61
f 24/66/66 28/68/68 27/67/67 23/65/65
f 20/70/70 16/72/72 15/71/71 19/69/69
f 23/74/74 27/76/76 19/75/75 15/73/73
f 20/78/78 28/80/80 24/79/79 16/77/77
f 22/82/82 26/84/84 25/83/83 21/81/81
f 18/86/86 14/88/88 13/87/87 17/85/85
f 21/90/90 25/92/92 17/91/91 13/89/89
f 18/94/94 26/96/96 22/95/95 14/93/93
