# Rhino

mtllib logcabin-3-3.mtl
g 3
o object_1
usemtl Default
v -0.3656428158283234 -0.002156978007405996 0.627376914024353
v -0.3656428158283234 0.09434682130813599 0.627376914024353
v -0.3656428158283234 -0.002156978007405996 -2.040513515472412
v -0.3656428158283234 0.09434682130813599 -2.040513515472412
v -0.3656428158283234 -0.002156978007405996 -4.708404064178467
v -0.3656428158283234 0.09434682130813599 -4.708404064178467
v 1.45945405960083 -0.002156978007405996 0.627376914024353
v 1.45945405960083 0.09434682130813599 0.627376914024353
v 1.45945405960083 -0.002156978007405996 -4.708404064178467
v 1.45945405960083 0.09434682130813599 -4.708404064178467
v 3.284550905227661 -0.002156978007405996 0.627376914024353
v 3.284550905227661 0.09434682130813599 0.627376914024353
v 3.284550905227661 -0.002156978007405996 -2.040513515472412
v 3.284550905227661 0.09434682130813599 -2.040513515472412
v 3.284550905227661 -0.002156978007405996 -4.708404064178467
v 3.284550905227661 0.09434682130813599 -4.708404064178467
vt 0.02497315034270287 0
vt 0.01321899704635143 0
vt 0.02497315034270287 0.5
vt 0.01321899704635143 0.5
vt 0.02497315034270287 0.25
vt 0.01321899704635143 0.25
vt 0.05141114443540573 0
vt 0.03965698927640915 0
vt 0.05141114443540573 0.7308900952339172
vt 0.03965698927640915 0.7308900952339172
vt 0.05141114443540573 0.3654450476169586
vt 0.03965698927640915 0.3654450476169586
vt 0.01175415329635143 0
vt 0 0
vt 0.01175415329635143 0.5
vt 0 0.5
vt 0.01175415329635143 0.25
vt 0 0.25
vt 0.03819214552640915 0
vt 0.02643799409270287 0
vt 0.03819214552640915 0.7308900952339172
vt 0.02643799409270287 0.7308900952339172
vt 0.03819214552640915 0.3654450476169586
vt 0.02643799409270287 0.3654450476169586
vt 0.05287598818540573 0.5
vt 0.05287598818540573 0.99853515625
vt 0.7823012471199036 0.5
vt 0.7823012471199036 0.99853515625
vt 0.05287598818540573 0.749267578125
vt 0.417588621377945 0.99853515625
vt 0.7823012471199036 0.749267578125
vt 0.417588621377945 0.5
vt 0.7823012471199036 0
vt 0.05287598818540573 0
vt 0.7823012471199036 0.49853515625
vt 0.05287598818540573 0.49853515625
vt 0.7823012471199036 0.249267578125
vt 0.417588621377945 0.49853515625
vt 0.05287598818540573 0.249267578125
vt 0.417588621377945 0
vn 0 0 1
vn 0 0 1
vn 0 0 1
vn 0 0 1
vn 0 0 1
vn 0 0 1
vn 1 0 0
vn 1 0 0
vn 1 0 0
vn 1 0 0
vn 1 0 0
vn 1 0 0
vn 0 0 -1
vn 0 0 -1
vn 0 0 -1
vn 0 0 -1
vn 0 0 -1
vn 0 0 -1
vn -1 0 0
vn -1 0 0
vn -1 0 0
vn -1 0 0
vn -1 0 0
vn -1 0 0
vn 0 -1 0
vn 0 -1 0
vn 0 -1 0
vn 0 -1 0
vn 0 -1 0
vn 0 -1 0
vn 0 -1 0
vn 0 -1 0
vn 0 1 0
vn 0 1 0
vn 0 1 0
vn 0 1 0
vn 0 1 0
vn 0 1 0
vn 0 1 0
vn 0 1 0
f 2/2/2 1/1/1 7/5/5 8/6/6
f 11/3/3 12/4/4 8/6/6 7/5/5
f 12/8/8 11/7/7 13/11/11 14/12/12
f 15/9/9 16/10/10 14/12/12 13/11/11
f 16/14/14 15/13/13 9/17/17 10/18/18
f 5/15/15 6/16/16 10/18/18 9/17/17
f 6/20/20 5/19/19 3/23/23 4/24/24
f 1/21/21 2/22/22 4/24/24 3/23/23
f 7/29/29 1/25/25 3/32/32
f 7/29/29 13/30/30 11/26/26
f 9/31/31 7/29/29 3/32/32
f 7/29/29 9/31/31 13/30/30
f 9/31/31 15/28/28 13/30/30
f 5/27/27 9/31/31 3/32/32
f 4/40/40 2/33/33 8/37/37
f 4/40/40 10/39/39 6/34/34
f 14/38/38 4/40/40 8/37/37
f 4/40/40 14/38/38 10/39/39
f 14/38/38 16/36/36 10/39/39
f 12/35/35 14/38/38 8/37/37
