# Rhino

mtllib rigidinsulation.mtl
g Rigid_insulation
o object_1
usemtl Default
v 0 0 0
v 0 1.219200015068054 0
v 0 2.438400030136108 0
v 0 0 -0.05079999938607216
v 0 1.219200015068054 -0.05079999938607216
v 0 2.438400030136108 -0.05079999938607216
v 0.6096000075340271 0 0
v 0.6096000075340271 2.438400030136108 0
v 0.6096000075340271 0 -0.05079999938607216
v 0.6096000075340271 2.438400030136108 -0.05079999938607216
v 1.219200015068054 0 0
v 1.219200015068054 1.219200015068054 0
v 1.219200015068054 2.438400030136108 0
v 1.219200015068054 0 -0.05079999938607216
v 1.219200015068054 1.219200015068054 -0.05079999938607216
v 1.219200015068054 2.438400030136108 -0.05079999938607216
vt 0.4799999892711639 0
vt 0.4799999892711639 0.9599999785423279
vt 0.9585351347923279 0
vt 0.9585351347923279 0.9599999785423279
vt 0.7192676067352295 0
vt 0.4799999892711639 0.4799999892711639
vt 0.7192676067352295 0.9599999785423279
vt 0.9585351347923279 0.4799999892711639
vt 0 0.01999999955296516
vt 0 0.03853515535593033
vt 0.4785351455211639 0.01999999955296516
vt 0.4785351455211639 0.03853515535593033
vt 0.239267572760582 0.01999999955296516
vt 0.239267572760582 0.03853515535593033
vt 0.99853515625 0
vt 0.9800000190734863 0
vt 0.99853515625 0.9599999785423279
vt 0.9800000190734863 0.9599999785423279
vt 0.99853515625 0.4799999892711639
vt 0.9800000190734863 0.4799999892711639
vt 0 0
vt 0 0.01853515580296516
vt 0.4785351455211639 0
vt 0.4785351455211639 0.01853515580296516
vt 0.239267572760582 0
vt 0.239267572760582 0.01853515580296516
vt 0.9785351753234863 0
vt 0.9599999785423279 0
vt 0.9785351753234863 0.9599999785423279
vt 0.9599999785423279 0.9599999785423279
vt 0.9785351753234863 0.4799999892711639
vt 0.9599999785423279 0.4799999892711639
vt 0 0.03999999910593033
vt 0 0.99853515625
vt 0.4785351455211639 0.03999999910593033
vt 0.4785351455211639 0.99853515625
vt 0.239267572760582 0.03999999910593033
vt 0.4785351455211639 0.5192675590515137
vt 0.239267572760582 0.99853515625
vt 0 0.5192675590515137
vn 0 0 1
vn 0 0 1
vn 0 0 1
vn 0 0 1
vn 0 0 1
vn 0 0 1
vn 0 0 1
vn 0 0 1
vn 0 -1 0
vn 0 -1 0
vn 0 -1 0
vn 0 -1 0
vn 0 -1 0
vn 0 -1 0
vn 1 0 0
vn 1 0 0
vn 1 0 0
vn 1 0 0
vn 1 0 0
vn 1 0 0
vn 0 1 0
vn 0 1 0
vn 0 1 0
vn 0 1 0
vn 0 1 0
vn 0 1 0
vn -1 0 0
vn -1 0 0
vn -1 0 0
vn -1 0 0
vn -1 0 0
vn -1 0 0
vn 0 0 -1
vn 0 0 -1
vn 0 0 -1
vn 0 0 -1
vn 0 0 -1
vn 0 0 -1
vn 0 0 -1
vn 0 0 -1
f 2/6/6 1/1/1 7/5/5
f 2/6/6 8/7/7 3/2/2
f 12/8/8 2/6/6 7/5/5
f 2/6/6 12/8/8 8/7/7
f 12/8/8 13/4/4 8/7/7
f 11/3/3 12/8/8 7/5/5
f 14/10/10 11/9/9 7/13/13 9/14/14
f 1/11/11 4/12/12 9/14/14 7/13/13
f 16/16/16 13/15/15 12/19/19 15/20/20
f 11/17/17 14/18/18 15/20/20 12/19/19
f 3/21/21 8/25/25 10/26/26 6/22/22
f 16/24/24 10/26/26 8/25/25 13/23/23
f 4/28/28 1/27/27 2/31/31 5/32/32
f 3/29/29 6/30/30 5/32/32 2/31/31
f 5/40/40 9/37/37 4/33/33
f 5/40/40 6/34/34 10/39/39
f 15/38/38 9/37/37 5/40/40
f 5/40/40 10/39/39 15/38/38
f 15/38/38 10/39/39 16/36/36
f 14/35/35 9/37/37 15/38/38
