# Rhino

mtllib rock4.mtl
g rough_stuff
o object_1
usemtl Default
v -0.1226516216993332 0.1035835817456245 -0.06196315214037895
v -0.1211577951908112 0.2509846091270447 -0.2089905589818955
v -0.1022810861468315 0.3064036071300507 0.2793146073818207
v -0.098594069480896 0.5458559393882752 0.07787454128265381
v -0.09817875921726227 0.390484482049942 0.2919118702411652
v -0.05728708952665329 0.2830605804920197 -0.2622308433055878
v -0.01395499054342508 0.630745530128479 0.05301474407315254
v 0 0 0
v 0.1227973029017448 0.4886889755725861 0.3966791331768036
v 0.1234605982899666 0.08324553072452545 0.3444509506225586
v 0.1243521422147751 0.6546843647956848 -0.1113456413149834
v 0.1439493149518967 0.5295639634132385 -0.2731785774230957
v 0.1603965759277344 -0.00207515200600028 0.2816864252090454
v 0.1942834556102753 0.6408597826957703 0.2650575339794159
v 0.2698662281036377 0.3463067710399628 0.4395039081573486
v 0.384425699710846 0.4441067278385162 -0.2599895894527435
v 0.4165795147418976 0.09626178443431854 -0.2349693030118942
v 0.4273066818714142 0.3466610014438629 0.3801488876342773
v 0.4504329562187195 0.03438162058591843 -0.1847740858793259
v 0.493613600730896 0.6804779767990112 0.1253934651613236
v 0.5191844701766968 0.6690953373908997 0.1236307844519615
v 0.5368806719779968 0.0255164597183466 0.1550463736057282
v 0.5595689415931702 0.5897254943847656 0.03620145097374916
v 0.5862933397293091 0.03335617110133171 0.03605131804943085
vt 0.136305645108223 0.5313328504562378
vt 0 0.6180898547172546
vt 0.136305645108223 0.7447348833084106
vt 0.0322863757610321 0.758859395980835
vt 0.99853515625 0
vt 0.8753315806388855 0.2573027014732361
vt 0.8313505053520203 0.2130072563886643
vt 0.99853515625 0.2370446473360062
vt 0.8437347412109375 0.02002944797277451
vt 0.4327506124973297 0
vt 0.4953886270523071 0.002623836975544691
vt 0.4953886270523071 0.2718832790851593
vt 0.44937863945961 0.3111545443534851
vt 0.3143061995506287 0.1576333791017532
vt 0.1490660756826401 0.4955027103424072
vt 0 0.4663312137126923
vt 0.001097923144698143 0.3647671043872833
vt 0.1490660756826401 0.3381243646144867
vt 0.1168482974171639 0.3126193881034851
vt 0.6470295190811157 0.7992069125175476
vt 0.4968385398387909 0.6295048594474793
vt 0.5010232925415039 0.7528140544891357
vt 0.6470295190811157 0.5529356002807617
vt 0.148152157664299 0.5649280548095703
vt 0.1722427010536194 0.5313328504562378
vt 0.2993747293949127 0.7498180270195007
vt 0.1982699185609818 0.7513752579689026
vt 0.2993747293949127 0.5497159361839294
vt 0.633455753326416 0.5514707565307617
vt 0.4977664649486542 0.4644489586353302
vt 0.4845173954963684 0.3622257709503174
vt 0.5729105472564697 0.3126193881034851
vt 0.6470295190811157 0.3467010259628296
vt 0.6470295190811157 0.5504775047302246
vt 0.992085337638855 0.6608328819274902
vt 0.8662145137786865 0.6571984887123108
vt 0.992085337638855 0.3903058171272278
vt 0.8375937342643738 0.6263970732688904
vt 0.8232786655426025 0.4569055736064911
vt 0.4953736960887909 0.5529356002807617
vt 0.4953736960887909 0.7460012435913086
vt 0.4125230312347412 0.742780327796936
vt 0.3125177025794983 0.6218498945236206
vt 0.3408528864383698 0.5754562616348267
vt 0.8154507279396057 0.428222268819809
vt 0.8058390021324158 0.6512755155563355
vt 0.7458494305610657 0.6426177024841309
vt 0.6484943628311157 0.4894732534885407
vt 0.7231284379959106 0.3903058171272278
vt 0.8154507279396057 0.6416243314743042
vt 0.4283901453018189 0.5412288308143616
vt 0.33292356133461 0.4976487457752228
vt 0.3125177025794983 0.3999534845352173
vt 0.4400909841060638 0.3126193881034851
vt 0.4830525517463684 0.3177746832370758
vt 0.4830525517463684 0.5178768038749695
vt 0.1385753601789475 0.297050416469574
vt 0 0.1047302857041359
vt 0.1703092455863953 0.02173090726137161
vt 0.03611394762992859 0.02935916930437088
vt 0.1328747272491455 0
vt 0.1703092455863953 0.2694671154022217
vt 0.8298856616020203 0
vt 0.6520992517471314 0.07263563573360443
vt 0.7572959065437317 0.2341435849666596
vt 0.6484943628311157 0.1269951462745667
vt 0.8298856616020203 0.1977672129869461
vt 0.1505309194326401 0.4256797432899475
vt 0.2099842429161072 0.3126193881034851
vt 0.256148636341095 0.4973796010017395
vt 0.3110528588294983 0.3313758969306946
vt 0.3110528588294983 0.4758005142211914
vn -0.1052715629339218 0.9928641319274902 0.05602426081895828
vn -0.1052715629339218 0.9928641319274902 0.05602426081895828
vn -0.1052715629339218 0.9928641319274902 0.05602426081895828
vn -0.1052715629339218 0.9928641319274902 0.05602426081895828
vn 0.05927227064967156 -0.9973954558372498 -0.04109823703765869
vn 0.05927227064967156 -0.9973954558372498 -0.04109823703765869
vn 0.05927227064967156 -0.9973954558372498 -0.04109823703765869
vn 0.05927227064967156 -0.9973954558372498 -0.04109823703765869
vn 0.05927227064967156 -0.9973954558372498 -0.04109823703765869
vn 0.9216057658195496 0.04416396468877792 0.3856064975261688
vn 0.9216057658195496 0.04416396468877792 0.3856064975261688
vn 0.9216057658195496 0.04416396468877792 0.3856064975261688
vn 0.9216057658195496 0.04416396468877792 0.3856064975261688
vn 0.9216057658195496 0.04416396468877792 0.3856064975261688
vn -0.3818134665489197 -0.1186968982219696 0.9165858030319214
vn -0.3818134665489197 -0.1186968982219696 0.9165858030319214
vn -0.3818134665489197 -0.1186968982219696 0.9165858030319214
vn -0.3818134665489197 -0.1186968982219696 0.9165858030319214
vn -0.3818134665489197 -0.1186968982219696 0.9165858030319214
vn 0.03019279800355434 -0.06893450021743774 -0.9971641898155212
vn 0.03019279800355434 -0.06893450021743774 -0.9971641898155212
vn 0.03019279800355434 -0.06893450021743774 -0.9971641898155212
vn 0.03019279800355434 -0.06893450021743774 -0.9971641898155212
vn -0.9984791874885559 0.04367568716406822 0.03364194184541702
vn -0.9984791874885559 0.04367568716406822 0.03364194184541702
vn -0.9984791874885559 0.04367568716406822 0.03364194184541702
vn -0.9984791874885559 0.04367568716406822 0.03364194184541702
vn -0.9984791874885559 0.04367568716406822 0.03364194184541702
vn 0.295428067445755 0.5418199300765991 0.7868630290031433
vn 0.295428067445755 0.5418199300765991 0.7868630290031433
vn 0.295428067445755 0.5418199300765991 0.7868630290031433
vn 0.295428067445755 0.5418199300765991 0.7868630290031433
vn 0.295428067445755 0.5418199300765991 0.7868630290031433
vn 0.295428067445755 0.5418199300765991 0.7868630290031433
vn 0.8510817289352417 0.04102173820137978 -0.5234282612800598
vn 0.8510817289352417 0.04102173820137978 -0.5234282612800598
vn 0.8510817289352417 0.04102173820137978 -0.5234282612800598
vn 0.8510817289352417 0.04102173820137978 -0.5234282612800598
vn 0.8510817289352417 0.04102173820137978 -0.5234282612800598
vn -0.701015830039978 -0.5938977003097534 0.3947940170764923
vn -0.701015830039978 -0.5938977003097534 0.3947940170764923
vn -0.701015830039978 -0.5938977003097534 0.3947940170764923
vn -0.701015830039978 -0.5938977003097534 0.3947940170764923
vn -0.701015830039978 -0.5938977003097534 0.3947940170764923
vn 0.3046626448631287 0.7710137367248535 -0.5592123866081238
vn 0.3046626448631287 0.7710137367248535 -0.5592123866081238
vn 0.3046626448631287 0.7710137367248535 -0.5592123866081238
vn 0.3046626448631287 0.7710137367248535 -0.5592123866081238
vn 0.3046626448631287 0.7710137367248535 -0.5592123866081238
vn 0.3046626448631287 0.7710137367248535 -0.5592123866081238
vn -0.6829949021339417 0.5355111360549927 -0.4967351257801056
vn -0.6829949021339417 0.5355111360549927 -0.4967351257801056
vn -0.6829949021339417 0.5355111360549927 -0.4967351257801056
vn -0.6829949021339417 0.5355111360549927 -0.4967351257801056
vn -0.6829949021339417 0.5355111360549927 -0.4967351257801056
vn -0.6829949021339417 0.5355111360549927 -0.4967351257801056
vn -0.2307156622409821 -0.6859831809997559 -0.6900705099105835
vn -0.2307156622409821 -0.6859831809997559 -0.6900705099105835
vn -0.2307156622409821 -0.6859831809997559 -0.6900705099105835
vn -0.2307156622409821 -0.6859831809997559 -0.6900705099105835
vn -0.2307156622409821 -0.6859831809997559 -0.6900705099105835
vn -0.2307156622409821 -0.6859831809997559 -0.6900705099105835
vn 0.3119912445545197 -0.4716471135616303 0.8247487545013428
vn 0.3119912445545197 -0.4716471135616303 0.8247487545013428
vn 0.3119912445545197 -0.4716471135616303 0.8247487545013428
vn 0.3119912445545197 -0.4716471135616303 0.8247487545013428
vn 0.3119912445545197 -0.4716471135616303 0.8247487545013428
vn -0.5380274057388306 0.6816515922546387 0.4958604276180267
vn -0.5380274057388306 0.6816515922546387 0.4958604276180267
vn -0.5380274057388306 0.6816515922546387 0.4958604276180267
vn -0.5380274057388306 0.6816515922546387 0.4958604276180267
vn -0.5380274057388306 0.6816515922546387 0.4958604276180267
f 11/3/3 14/2/2 20/1/1
f 14/2/2 11/3/3 7/4/4
f 24/6/6 13/9/9 8/5/5
f 22/7/7 13/9/9 24/6/6
f 19/8/8 24/6/6 8/5/5
f 23/12/12 22/10/10 24/11/11
f 18/14/14 22/10/10 21/13/13
f 23/12/12 21/13/13 22/10/10
f 9/17/17 5/19/19 3/18/18
f 9/17/17 3/18/18 15/16/16
f 10/15/15 15/16/16 3/18/18
f 6/20/20 16/21/21 17/23/23
f 16/21/21 6/20/20 12/22/22
f 1/27/27 5/25/25 4/28/28
f 3/24/24 5/25/25 1/27/27
f 2/26/26 1/27/27 4/28/28
f 14/30/30 9/31/31 15/32/32
f 18/33/33 20/29/29 15/32/32
f 14/30/30 15/32/32 20/29/29
f 21/34/34 20/29/29 18/33/33
f 24/35/35 16/39/39 23/37/37
f 19/36/36 17/38/38 24/35/35
f 16/39/39 24/35/35 17/38/38
f 8/42/42 10/44/44 3/40/40
f 13/43/43 10/44/44 8/42/42
f 1/41/41 8/42/42 3/40/40
f 23/47/47 16/48/48 12/49/49
f 11/45/45 23/47/47 12/49/49
f 11/45/45 21/46/46 23/47/47
f 20/50/50 21/46/46 11/45/45
f 11/52/52 12/53/53 6/54/54
f 2/55/55 4/56/56 6/54/54
f 11/52/52 6/54/54 7/51/51
f 4/56/56 7/51/51 6/54/54
f 19/57/57 1/60/60 2/61/61
f 6/59/59 17/62/62 2/61/61
f 8/58/58 1/60/60 19/57/57
f 17/62/62 19/57/57 2/61/61
f 15/65/65 13/64/64 22/63/63
f 10/66/66 13/64/64 15/65/65
f 18/67/67 15/65/65 22/63/63
f 5/68/68 9/69/69 14/71/71
f 4/70/70 5/68/68 7/72/72
f 14/71/71 7/72/72 5/68/68
