# Rhino

mtllib rock7.mtl
g rough_stuff
o object_1
usemtl Default
v -0.2281012088060379 0.3892597854137421 -0.1259497255086899
v -0.1967652440071106 0.2820447683334351 -0.2479247748851776
v -0.1532247811555862 0.6043847799301148 -0.1322873681783676
v -0.1314379870891571 0.3194543719291687 0.1740330904722214
v -0.1142136976122856 0.3449287116527557 0.1938677877187729
v -0.08870381116867065 0.6745082139968872 -0.03555206209421158
v -0.05957033857703209 0.3904774785041809 -0.4323927760124207
v -0.05873233079910278 0.04869154840707779 -0.1659980863332748
v -0.03674530610442162 0.598683774471283 0.1596593707799912
v -0.02317174337804318 0.5794784426689148 -0.3844008445739746
v 0 0 0
v 0.1539909392595291 0.6806325316429138 -0.3645627498626709
v 0.1600819081068039 0.7618290781974793 -0.1548723429441452
v 0.1688769459724426 0.003604791592806578 0.0385914072394371
v 0.2194102555513382 0.3079155087471008 0.2421588748693466
v 0.2483878582715988 0.1865866631269455 -0.4970418810844421
v 0.2784736156463623 0.1328550130128861 0.1440016329288483
v 0.2957007884979248 0.1913067549467087 -0.4975641667842865
v 0.3550185263156891 0.6377789974212647 0.2020723074674606
v 0.3767523765563965 0.5155174732208252 -0.4159294366836548
v 0.3866369426250458 0.1273327171802521 -0.275420755147934
v 0.4533767402172089 0.6853097081184387 0.1244557276368141
v 0.5218977928161621 0.3157731592655182 -0.03156033903360367
v 0.5650870800018311 0.5585983991622925 -0.009446398355066776
vt 0.3273068070411682 0
vt 0.3316982686519623 0.06806723028421402
vt 0.5796377062797546 0.1415693610906601
vt 0.4856384694576263 0.1994781345129013
vt 0.5386438965797424 0
vt 0.2894578278064728 0.2157346457242966
vt 0.306131511926651 0.2335215359926224
vt 0.04737741127610207 0.2157346457242966
vt 0 0.2965377271175385
vt 0.04298823699355125 0.3742813467979431
vt 0.2470224499702454 0.3463412225246429
vt 0.3364865779876709 0.448471337556839
vt 0.3823847472667694 0.3977290093898773
vt 0.3668883442878723 0.5539253950119019
vt 0.4884181320667267 0.5903879404067993
vt 0.6318289637565613 0.4820858240127564
vt 0.5663967728614807 0.3977290093898773
vt 0 0.01569753512740135
vt 0.01865403167903423 0
vt 0.2078587859869003 0.1879399865865707
vt 0.06347651779651642 0.1802617609500885
vt 0.2525074481964111 0.09280518442392349
vt 0.2108983397483826 0
vt 0.8316405415534973 0.6138095855712891
vt 0.7389706373214722 0.4080479741096497
vt 0.8316405415534973 0.4154905378818512
vt 0.6689416766166687 0.5910076498985291
vt 0.6383446455001831 0.5120102167129517
vt 0.8146516084671021 0.21068075299263
vt 0.7278685569763184 0.2296744585037231
vt 0.6449488401412964 0.1697216033935547
vt 0.6383446455001831 0.06265879422426224
vt 0.8146516084671021 0.01236172765493393
vt 0.8005381226539612 0
vt 0.5158281326293945 0.3962641656398773
vt 0.3273068070411682 0.3014603853225708
vt 0.3715640902519226 0.2009429782629013
vt 0.6023176312446594 0.2009429782629013
vt 0.6182218790054321 0.3435821235179901
vt 0.6368798017501831 0.5918527841567993
vt 0.4551474452018738 0.7965701222419739
vt 0.3364865779876709 0.7521209716796875
vt 0.6056079864501953 0.7139902114868164
vt 0.4072460830211639 0.5918527841567993
vt 0.1675944328308106 0.5544991493225098
vt 0.06827209144830704 0.5762358903884888
vt 0 0.4652406573295593
vt 0.05129722878336906 0.3977290093898773
vt 0.1675944328308106 0.4084916114807129
vt 0.1855313032865524 0.5553452372550964
vt 0.1690592765808106 0.4459507465362549
vt 0.3350217342376709 0.5786141753196716
vt 0.3187173008918762 0.5878846645355225
vt 0.2192535251379013 0.3977290093898773
vt 0.3350217342376709 0.4131041169166565
vt 0.99853515625 0.4080479741096497
vt 0.99853515625 0.6501283645629883
vt 0.8331053853034973 0.5034632086753845
vt 0.8557484149932861 0.6317689418792725
vt 0.8256642818450928 0.08328323066234589
vt 0.8621335029602051 0.2532915771007538
vt 0.9897506833076477 0.2030294686555862
vt 0.9897506833076477 0
vt 0.3350217342376709 0.5899067521095276
vt 0.1666228324174881 0.7654577493667603
vt 0.2339421212673187 0.5985326766967773
vt 0.3350217342376709 0.795845091342926
vt 0.05453281849622726 0.7862082719802856
vt 0 0.696668803691864
vt 0.1651579886674881 0.757127583026886
vt 0.09872397035360336 0.5899067521095276
vt 0.1651579886674881 0.6087436079978943
vn -0.1331102550029755 0.9113860726356506 0.3894318044185638
vn -0.1331102550029755 0.9113860726356506 0.3894318044185638
vn -0.1331102550029755 0.9113860726356506 0.3894318044185638
vn -0.1331102550029755 0.9113860726356506 0.3894318044185638
vn -0.1331102550029755 0.9113860726356506 0.3894318044185638
vn 0.09099947661161423 -0.9464336633682251 -0.3098103702068329
vn 0.09099947661161423 -0.9464336633682251 -0.3098103702068329
vn 0.09099947661161423 -0.9464336633682251 -0.3098103702068329
vn 0.09099947661161423 -0.9464336633682251 -0.3098103702068329
vn 0.09099947661161423 -0.9464336633682251 -0.3098103702068329
vn 0.09099947661161423 -0.9464336633682251 -0.3098103702068329
vn 0.6621429920196533 -0.1839275360107422 0.7264553308486939
vn 0.6621429920196533 -0.1839275360107422 0.7264553308486939
vn 0.6621429920196533 -0.1839275360107422 0.7264553308486939
vn 0.6621429920196533 -0.1839275360107422 0.7264553308486939
vn 0.6621429920196533 -0.1839275360107422 0.7264553308486939
vn 0.6621429920196533 -0.1839275360107422 0.7264553308486939
vn -0.03585776314139366 0.2524373531341553 -0.9669486284255981
vn -0.03585776314139366 0.2524373531341553 -0.9669486284255981
vn -0.03585776314139366 0.2524373531341553 -0.9669486284255981
vn -0.03585776314139366 0.2524373531341553 -0.9669486284255981
vn -0.03585776314139366 0.2524373531341553 -0.9669486284255981
vn -0.03585776314139366 0.2524373531341553 -0.9669486284255981
vn -0.8731072545051575 -0.4548447132110596 0.1754992008209229
vn -0.8731072545051575 -0.4548447132110596 0.1754992008209229
vn -0.8731072545051575 -0.4548447132110596 0.1754992008209229
vn -0.8731072545051575 -0.4548447132110596 0.1754992008209229
vn -0.8731072545051575 -0.4548447132110596 0.1754992008209229
vn -0.178719773888588 -0.5263844132423401 0.8312512636184692
vn -0.178719773888588 -0.5263844132423401 0.8312512636184692
vn -0.178719773888588 -0.5263844132423401 0.8312512636184692
vn -0.178719773888588 -0.5263844132423401 0.8312512636184692
vn -0.178719773888588 -0.5263844132423401 0.8312512636184692
vn -0.178719773888588 -0.5263844132423401 0.8312512636184692
vn 0.5145072340965271 0.7944925427436829 -0.3225892782211304
vn 0.5145072340965271 0.7944925427436829 -0.3225892782211304
vn 0.5145072340965271 0.7944925427436829 -0.3225892782211304
vn 0.5145072340965271 0.7944925427436829 -0.3225892782211304
vn 0.5145072340965271 0.7944925427436829 -0.3225892782211304
vn 0.9052850604057312 -0.1240138784050942 -0.4062997400760651
vn 0.9052850604057312 -0.1240138784050942 -0.4062997400760651
vn 0.9052850604057312 -0.1240138784050942 -0.4062997400760651
vn 0.9052850604057312 -0.1240138784050942 -0.4062997400760651
vn 0.9052850604057312 -0.1240138784050942 -0.4062997400760651
vn -0.8418055176734924 0.2793927490711212 -0.4618476033210754
vn -0.8418055176734924 0.2793927490711212 -0.4618476033210754
vn -0.8418055176734924 0.2793927490711212 -0.4618476033210754
vn -0.8418055176734924 0.2793927490711212 -0.4618476033210754
vn -0.8418055176734924 0.2793927490711212 -0.4618476033210754
vn -0.8789343237876892 0.3164349496364594 0.3568520843982697
vn -0.8789343237876892 0.3164349496364594 0.3568520843982697
vn -0.8789343237876892 0.3164349496364594 0.3568520843982697
vn -0.8789343237876892 0.3164349496364594 0.3568520843982697
vn -0.8789343237876892 0.3164349496364594 0.3568520843982697
vn -0.8789343237876892 0.3164349496364594 0.3568520843982697
vn -0.4971783757209778 -0.5341423749923706 -0.6837437748908997
vn -0.4971783757209778 -0.5341423749923706 -0.6837437748908997
vn -0.4971783757209778 -0.5341423749923706 -0.6837437748908997
vn -0.4971783757209778 -0.5341423749923706 -0.6837437748908997
vn -0.1227631121873856 0.1693059802055359 0.9778878688812256
vn -0.1227631121873856 0.1693059802055359 0.9778878688812256
vn -0.1227631121873856 0.1693059802055359 0.9778878688812256
vn -0.1227631121873856 0.1693059802055359 0.9778878688812256
vn 0.6714086532592773 -0.7182383537292481 0.1826037615537643
vn 0.6714086532592773 -0.7182383537292481 0.1826037615537643
vn 0.6714086532592773 -0.7182383537292481 0.1826037615537643
vn 0.6714086532592773 -0.7182383537292481 0.1826037615537643
vn -0.4444445967674255 0.8396372199058533 -0.3122151494026184
vn -0.4444445967674255 0.8396372199058533 -0.3122151494026184
vn -0.4444445967674255 0.8396372199058533 -0.3122151494026184
vn -0.4444445967674255 0.8396372199058533 -0.3122151494026184
vn -0.4444445967674255 0.8396372199058533 -0.3122151494026184
f 13/5/5 19/2/2 22/1/1
f 9/4/4 19/2/2 6/3/3
f 13/5/5 6/3/3 19/2/2
f 21/11/11 14/10/10 11/9/9
f 8/8/8 21/11/11 11/9/9
f 21/11/11 8/8/8 18/7/7
f 16/6/6 18/7/7 8/8/8
f 17/16/16 24/14/14 22/12/12
f 19/13/13 15/17/17 22/12/12
f 23/15/15 24/14/14 17/16/16
f 15/17/17 17/16/16 22/12/12
f 10/22/22 20/21/21 18/18/18
f 16/19/19 10/22/22 18/18/18
f 12/20/20 20/21/21 10/22/22
f 7/23/23 10/22/22 16/19/19
f 4/24/24 8/25/25 11/26/26
f 2/28/28 8/25/25 1/27/27
f 4/24/24 1/27/27 8/25/25
f 15/32/32 5/34/34 4/33/33
f 11/29/29 15/32/32 4/33/33
f 14/30/30 17/31/31 11/29/29
f 15/32/32 11/29/29 17/31/31
f 12/39/39 22/36/36 24/37/37
f 13/35/35 22/36/36 12/39/39
f 20/38/38 12/39/39 24/37/37
f 23/43/43 18/42/42 20/44/44
f 21/41/41 18/42/42 23/43/43
f 24/40/40 23/43/43 20/44/44
f 10/45/45 1/48/48 3/49/49
f 2/47/47 1/48/48 7/46/46
f 10/45/45 7/46/46 1/48/48
f 9/50/50 6/51/51 3/54/54
f 1/55/55 5/53/53 3/54/54
f 9/50/50 3/54/54 5/53/53
f 4/52/52 5/53/53 1/55/55
f 8/57/57 7/58/58 16/56/56
f 7/58/58 8/57/57 2/59/59
f 5/61/61 15/60/60 19/63/63
f 19/63/63 9/62/62 5/61/61
f 21/67/67 17/66/66 14/64/64
f 17/66/66 21/67/67 23/65/65
f 13/70/70 3/71/71 6/72/72
f 10/69/69 3/71/71 12/68/68
f 13/70/70 12/68/68 3/71/71
