# Rhino

mtllib rock5.mtl
g rough_stuff
o object_1
usemtl Default
v -0.5217236280441284 0.4230026006698608 -0.01062046457082033
v -0.5159390568733215 0.4425192773342133 -0.0001247022446477786
v -0.3928863108158112 0.06991670280694962 0.0343775600194931
v -0.3163672387599945 0.3047464191913605 -0.4336400926113129
v -0.3137420117855072 0.3064860999584198 -0.4358585476875305
v -0.298322856426239 0.04024860262870789 -0.1880031228065491
v -0.2559380531311035 0.5683285593986511 0.2915754914283752
v -0.2443733960390091 0.5570063591003418 0.3004961311817169
v -0.2090699225664139 0.04895796254277229 0.2142689973115921
v -0.1861424744129181 0.6955980062484741 -0.2449458986520767
v -0.1800021082162857 0.09891165047883987 0.2554804980754852
v -0.1612188220024109 0.6299595236778259 -0.346593588590622
v -0.07945986837148666 0.7360835075378418 -0.0520266704261303
v -0.05913770943880081 -0.001830763183534145 -0.200841024518013
v 0 0 0
v 0.07060732692480087 0.6613383889198303 -0.03794811293482781
v 0.09160391986370087 0.1777675896883011 -0.4034412205219269
v 0.1049218401312828 0.1462935507297516 -0.3766656816005707
v 0.1245066002011299 0.4792618155479431 -0.3361688554286957
v 0.1879909783601761 0.5101962685585022 -0.2079988270998001
v 0.1959563344717026 0.4287489652633667 0.213521808385849
v 0.2740441858768463 0.3132636249065399 0.1912795156240463
v 0.3082141578197479 0.207247793674469 0.03365301713347435
v 0.3278599381446838 0.2505304515361786 0.07341606169939041
vt 0.8181249499320984 0.06081656739115715
vt 0.9967586994171143 0
vt 0.8415092825889587 0.1865275651216507
vt 0.9797273278236389 0.237987756729126
vt 0.99853515625 0.2252658009529114
vt 0.99853515625 0.000947318971157074
vt 0.2519997358322144 0.1948920488357544
vt 0 0.2021184414625168
vt 0.09697834402322769 0.401237279176712
vt 0.1808468997478485 0.3730408847332001
vt 0.006499102804809809 0.1948920488357544
vt 0.2688810229301453 0.4225285947322846
vt 0.2751047611236572 0.4299657046794891
vt 0.02573858574032784 0.4225285947322846
vt 0 0.4494379162788391
vt 0.01500996481627226 0.5843087434768677
vt 0.2041189223527908 0.6433823108673096
vt 0.2142945677042007 0.63702392578125
vt 0.3247204720973969 0.2114187926054001
vt 0.3260999619960785 0.2099452465772629
vt 0.5811038613319397 0.2099452465772629
vt 0.5871345400810242 0.2202997803688049
vt 0.4338056445121765 0.4210637509822846
vt 0.3731958270072937 0.3978210985660553
vt 0.7791208028793335 0.6789693236351013
vt 0.7490251064300537 0.701058030128479
vt 0.6776578426361084 0.4097317755222321
vt 0.7059069871902466 0.3934769332408905
vt 0.6263710856437683 0.5990411043167114
vt 0.7791208028793335 0.4127550423145294
vt 0.2690773010253906 0
vt 0.2824831902980804 0.01848331093788147
vt 0 0.01948646269738674
vt 0.02612492442131043 0
vt 0.2225213348865509 0.1704620867967606
vt 0.1458096504211426 0.1766633987426758
vt 0.8166601061820984 0
vt 0.8166601061820984 0.2243184745311737
vt 0.6263710856437683 0.1958584785461426
vt 0.6570525765419006 0.02871741913259029
vt 0.9838142991065979 0.3934769332408905
vt 0.9838142991065979 0.6484808325767517
vt 0.8090576529502869 0.5737207531929016
vt 0.7920108437538147 0.4468171298503876
vt 0.4337555766105652 0.5996238589286804
vt 0.4287591874599457 0.5112835764884949
vt 0.6030929088592529 0.6166101694107056
vt 0.5435329079627991 0.6425697803497315
vt 0.5300033688545227 0.4225285947322846
vt 0.6030929088592529 0.4466335773468018
vt 0.2765696048736572 0.7541021108627319
vt 0.3614763915538788 0.6590635776519775
vt 0.4570394158363342 0.8719278573989868
vt 0.3224288523197174 0.8735079765319824
vt 0.4570394158363342 0.7123926877975464
vt 0.5784471035003662 0
vt 0.5281134843826294 0.2084804028272629
vt 0.326683908700943 0.1170401126146317
vt 0.3247204720973969 0
vt 0.6249062418937683 0.9005510807037354
vt 0.4815455377101898 0.6927435398101807
vt 0.4585042595863342 0.7997274994850159
vt 0.6249062418937683 0.6590635776519775
vt 0 0.6550372242927551
vt 0.2662142813205719 0.6550372242927551
vt 0.2536125183105469 0.728204607963562
vt 0.06865154951810837 0.8896356821060181
vt 0.2765696048736572 0.6575987339019775
vt 0.2768111824989319 0.4669542908668518
vt 0.3360897898674011 0.4225285947322846
vt 0.4108316600322723 0.434518575668335
vt 0.4108316600322723 0.6475854516029358
vn -0.1577794253826141 -0.6777327656745911 -0.7181810140609741
vn -0.1577794253826141 -0.6777327656745911 -0.7181810140609741
vn -0.1577794253826141 -0.6777327656745911 -0.7181810140609741
vn -0.1577794253826141 -0.6777327656745911 -0.7181810140609741
vn -0.1577794253826141 -0.6777327656745911 -0.7181810140609741
vn -0.1577794253826141 -0.6777327656745911 -0.7181810140609741
vn 0.3319057822227478 0.7692192196846008 0.5460222959518433
vn 0.3319057822227478 0.7692192196846008 0.5460222959518433
vn 0.3319057822227478 0.7692192196846008 0.5460222959518433
vn 0.3319057822227478 0.7692192196846008 0.5460222959518433
vn 0.3319057822227478 0.7692192196846008 0.5460222959518433
vn -0.6992993354797363 -0.16657555103302 0.6951496601104736
vn -0.6992993354797363 -0.16657555103302 0.6951496601104736
vn -0.6992993354797363 -0.16657555103302 0.6951496601104736
vn -0.6992993354797363 -0.16657555103302 0.6951496601104736
vn -0.6992993354797363 -0.16657555103302 0.6951496601104736
vn -0.6992993354797363 -0.16657555103302 0.6951496601104736
vn -0.6992993354797363 -0.16657555103302 0.6951496601104736
vn -0.7297434806823731 0.4787815511226654 -0.4881010949611664
vn -0.7297434806823731 0.4787815511226654 -0.4881010949611664
vn -0.7297434806823731 0.4787815511226654 -0.4881010949611664
vn -0.7297434806823731 0.4787815511226654 -0.4881010949611664
vn -0.7297434806823731 0.4787815511226654 -0.4881010949611664
vn -0.7297434806823731 0.4787815511226654 -0.4881010949611664
vn 0.4156809747219086 -0.7104095816612244 0.5679150819778442
vn 0.4156809747219086 -0.7104095816612244 0.5679150819778442
vn 0.4156809747219086 -0.7104095816612244 0.5679150819778442
vn 0.4156809747219086 -0.7104095816612244 0.5679150819778442
vn 0.4156809747219086 -0.7104095816612244 0.5679150819778442
vn 0.4156809747219086 -0.7104095816612244 0.5679150819778442
vn 0.8959736824035645 0.001313690445385873 -0.4441051483154297
vn 0.8959736824035645 0.001313690445385873 -0.4441051483154297
vn 0.8959736824035645 0.001313690445385873 -0.4441051483154297
vn 0.8959736824035645 0.001313690445385873 -0.4441051483154297
vn 0.8959736824035645 0.001313690445385873 -0.4441051483154297
vn 0.8959736824035645 0.001313690445385873 -0.4441051483154297
vn 0.1413128823041916 0.2008738964796066 -0.9693710803985596
vn 0.1413128823041916 0.2008738964796066 -0.9693710803985596
vn 0.1413128823041916 0.2008738964796066 -0.9693710803985596
vn 0.1413128823041916 0.2008738964796066 -0.9693710803985596
vn -0.8747408390045166 -0.3604594767093658 -0.3238787055015564
vn -0.8747408390045166 -0.3604594767093658 -0.3238787055015564
vn -0.8747408390045166 -0.3604594767093658 -0.3238787055015564
vn -0.8747408390045166 -0.3604594767093658 -0.3238787055015564
vn 0.4371981918811798 0.8005881905555725 -0.4097759127616882
vn 0.4371981918811798 0.8005881905555725 -0.4097759127616882
vn 0.4371981918811798 0.8005881905555725 -0.4097759127616882
vn 0.4371981918811798 0.8005881905555725 -0.4097759127616882
vn 0.4371981918811798 0.8005881905555725 -0.4097759127616882
vn 0.4371981918811798 0.8005881905555725 -0.4097759127616882
vn -0.1698932200670242 -0.9836952090263367 0.05899197608232498
vn -0.1698932200670242 -0.9836952090263367 0.05899197608232498
vn -0.1698932200670242 -0.9836952090263367 0.05899197608232498
vn -0.1698932200670242 -0.9836952090263367 0.05899197608232498
vn -0.1698932200670242 -0.9836952090263367 0.05899197608232498
vn -0.5432469844818115 0.8300304412841797 0.1262228488922119
vn -0.5432469844818115 0.8300304412841797 0.1262228488922119
vn -0.5432469844818115 0.8300304412841797 0.1262228488922119
vn -0.5432469844818115 0.8300304412841797 0.1262228488922119
vn 0.5628066062927246 -0.8112844228744507 -0.158323347568512
vn 0.5628066062927246 -0.8112844228744507 -0.158323347568512
vn 0.5628066062927246 -0.8112844228744507 -0.158323347568512
vn 0.5628066062927246 -0.8112844228744507 -0.158323347568512
vn 0.1729843020439148 -0.07221741229295731 0.9822733998298645
vn 0.1729843020439148 -0.07221741229295731 0.9822733998298645
vn 0.1729843020439148 -0.07221741229295731 0.9822733998298645
vn 0.1729843020439148 -0.07221741229295731 0.9822733998298645
vn 0.8329910039901733 0.5459586381912231 0.08975069969892502
vn 0.8329910039901733 0.5459586381912231 0.08975069969892502
vn 0.8329910039901733 0.5459586381912231 0.08975069969892502
vn 0.8329910039901733 0.5459586381912231 0.08975069969892502
vn 0.8329910039901733 0.5459586381912231 0.08975069969892502
f 14/3/3 6/1/1 4/2/2
f 5/6/6 17/5/5 4/2/2
f 14/3/3 4/2/2 18/4/4
f 17/5/5 18/4/4 4/2/2
f 16/10/10 7/8/8 8/11/11
f 13/9/9 7/8/8 16/10/10
f 21/7/7 16/10/10 8/11/11
f 3/16/16 9/15/15 11/14/14
f 7/13/13 3/16/16 11/14/14
f 3/16/16 7/13/13 2/18/18
f 2/18/18 1/17/17 3/16/16
f 7/13/13 11/14/14 8/12/12
f 12/24/24 5/19/19 4/20/20
f 10/23/23 12/24/24 4/20/20
f 2/22/22 10/23/23 1/21/21
f 4/20/20 1/21/21 10/23/23
f 9/26/26 23/27/27 24/28/28
f 22/30/30 9/26/26 24/28/28
f 15/29/29 23/27/27 9/26/26
f 11/25/25 9/26/26 22/30/30
f 20/36/36 24/33/33 23/34/34
f 17/32/32 20/36/36 23/34/34
f 19/35/35 20/36/36 17/32/32
f 18/31/31 17/32/32 23/34/34
f 5/38/38 19/40/40 17/37/37
f 19/40/40 5/38/38 12/39/39
f 6/43/43 3/44/44 1/41/41
f 1/41/41 4/42/42 6/43/43
f 10/48/48 16/46/46 20/49/49
f 19/50/50 10/48/48 20/49/49
f 13/45/45 16/46/46 10/48/48
f 12/47/47 10/48/48 19/50/50
f 3/54/54 14/52/52 15/55/55
f 6/51/51 14/52/52 3/54/54
f 9/53/53 3/54/54 15/55/55
f 2/56/56 13/58/58 10/59/59
f 13/58/58 2/56/56 7/57/57
f 15/62/62 14/61/61 18/63/63
f 18/63/63 23/60/60 15/62/62
f 21/66/66 8/67/67 11/64/64
f 11/64/64 22/65/65 21/66/66
f 20/72/72 22/70/70 24/71/71
f 21/69/69 22/70/70 16/68/68
f 20/72/72 16/68/68 22/70/70
