# Rhino

o object_1
v -26.29669189453125 208.7419281005859 -31.86862945556641
v -26.29669189453125 209.2780456542969 -31.86862945556641
v -26.29669189453125 208.7419281005859 -450.8686218261719
v -26.29669189453125 209.2780456542969 -450.8686218261719
v 135.2033081054688 260.1830749511719 -192.6186218261719
v 135.2033081054688 260.7191772460938 -192.6186218261719
v 135.2033081054688 260.1830749511719 -290.1186218261719
v 135.2033081054688 260.7191772460938 -290.1186218261719
v 296.7033081054688 208.7419281005859 -31.86862945556641
v 296.7033081054688 209.2780456542969 -31.86862945556641
v 296.7033081054688 208.7419281005859 -450.8686218261719
v 296.7033081054688 209.2780456542969 -450.8686218261719
vt 0.8778838515281677 0.005535118747502565
vt 0.5 0.005535118747502565
vt 0.8778838515281677 0.01107023749500513
vt 0.5 0.01107023749500513
vt 0.9901960492134094 0.01660535670816898
vt 0.5 0.01660535670816898
vt 0.9901960492134094 0.02214047499001026
vt 0.5 0.02214047499001026
vt 0.8778838515281677 0
vt 0.5 0
vt 0.8778838515281677 0.005535118747502565
vt 0.5 0.005535118747502565
vt 0.9901960492134094 0.01107023749500513
vt 0.5 0.01107023749500513
vt 0.9901960492134094 0.01660535670816898
vt 0.5 0.01660535670816898
vt 0.00488761393353343 0.6061570644378662
vt 0.4936475455760956 0.6061570644378662
vt 0.1924011260271072 0.804452121257782
vt 0.306134045124054 0.804452121257782
vt 0.00488761393353343 0.398227334022522
vt 0.4936475455760956 0.398227334022522
vt 0.306134045124054 0.5965223908424377
vt 0.1924011260271072 0.5965223908424377
vt 0.4494337737560272 0.00377883855253458
vt 0.4494337737560272 0.3816626667976379
vt 0.2519746124744415 0.1927207708358765
vt 0.9494337439537048 0.02590495347976685
vt 0.9494337439537048 0.4023526608943939
vt 0.7519745826721191 0.2141288220882416
vt 0.5048876404762268 0.6118115186691284
vt 0.993647575378418 0.6118115186691284
vt 0.692401111125946 0.8086704611778259
vt 0.806134045124054 0.8086704611778259
vt 0.5048876404762268 0.4095506072044373
vt 0.993647575378418 0.4095506072044373
vt 0.806134045124054 0.60640949010849
vt 0.692401111125946 0.60640949010849
vt 0.199433758854866 0.00377883855253458
vt 0.199433758854866 0.3816626667976379
vt 0.001974597573280335 0.1927207708358765
vt 0.6994337439537048 0.02590495347976685
vt 0.6994337439537048 0.4023526608943939
vt 0.5019745826721191 0.2141288220882416
vn 0 0 -1
vn 0 0 -1
vn 0 0 -1
vn 0 0 -1
vn 1 0 0
vn 1 0 0
vn 1 0 0
vn 1 0 0
vn 0 0 1
vn 0 0 1
vn 0 0 1
vn 0 0 1
vn -1 0 0
vn -1 0 0
vn -1 0 0
vn -1 0 0
vn 0.3034971356391907 0.9528323411941528 0
vn 0.3034971356391907 0.9528323411941528 0
vn 0.3034971356391907 0.9528323411941528 0
vn 0.3034971356391907 0.9528323411941528 0
vn -0.3034971356391907 0.9528323411941528 0
vn -0.3034971356391907 0.9528323411941528 0
vn -0.3034971356391907 0.9528323411941528 0
vn -0.3034971356391907 0.9528323411941528 0
vn 0 0.9524222016334534 -0.3047818839550018
vn 0 0.9524222016334534 -0.3047818839550018
vn 0 0.9524222016334534 -0.3047818839550018
vn 0 0.9524222016334534 0.3047818839550018
vn 0 0.9524222016334534 0.3047818839550018
vn 0 0.9524222016334534 0.3047818839550018
vn -0.3034972250461578 -0.9528323411941528 0
vn -0.3034972250461578 -0.9528323411941528 0
vn -0.3034972250461578 -0.9528323411941528 0
vn -0.3034972250461578 -0.9528323411941528 0
vn 0.3034972250461578 -0.9528323411941528 0
vn 0.3034972250461578 -0.9528323411941528 0
vn 0.3034972250461578 -0.9528323411941528 0
vn 0.3034972250461578 -0.9528323411941528 0
vn 0 -0.9524221420288086 0.304781973361969
vn 0 -0.9524221420288086 0.304781973361969
vn 0 -0.9524221420288086 0.304781973361969
vn 0 -0.9524221420288086 -0.304781973361969
vn 0 -0.9524221420288086 -0.304781973361969
vn 0 -0.9524221420288086 -0.304781973361969
f 12/2/2 11/4/4 3/3/3 4/1/1
f 10/6/6 9/8/8 11/7/7 12/5/5
f 2/10/10 1/12/12 9/11/11 10/9/9
f 4/14/14 3/16/16 1/15/15 2/13/13
f 10/17/17 12/18/18 8/20/20 6/19/19
f 2/21/21 6/24/24 8/23/23 4/22/22
f 8/27/27 12/26/26 4/25/25
f 6/30/30 2/28/28 10/29/29
f 9/31/31 5/33/33 7/34/34 11/32/32
f 1/35/35 3/36/36 7/37/37 5/38/38
f 7/41/41 3/39/39 11/40/40
f 5/44/44 9/43/43 1/42/42
