# Rhino

o object_1
v -7.76177978515625 5.497618198394775 -46.14418029785156
v -7.76177978515625 205.4680023193359 -46.14418029785156
v -7.76177978515625 5.497618198394775 -49.36862945556641
v -7.76177978515625 205.4680023193359 -49.36862945556641
v -0.79669189453125 5.497618198394775 -46.14418029785156
v -0.79669189453125 85.99761962890625 -46.14418029785156
v -0.79669189453125 5.497618198394775 -49.36862945556641
v -0.79669189453125 85.99761962890625 -49.36862945556641
v 35.20330810546875 5.497618198394775 -46.14418029785156
v 35.20330810546875 85.99761962890625 -46.14418029785156
v 35.20330810546875 5.497618198394775 -49.36862945556641
v 35.20330810546875 85.99761962890625 -49.36862945556641
v 206.2033081054688 36.49674987792969 -46.14418029785156
v 206.2033081054688 77.73017120361328 -46.14418029785156
v 206.2033081054688 142.9967498779297 -46.14418029785156
v 206.2033081054688 184.2301635742188 -46.14418029785156
v 206.2033081054688 36.49674987792969 -49.36862945556641
v 206.2033081054688 77.73017120361328 -49.36862945556641
v 206.2033081054688 142.9967498779297 -49.36862945556641
v 206.2033081054688 184.2301635742188 -49.36862945556641
v 252.7033081054688 36.49674987792969 -46.14418029785156
v 252.7033081054688 77.73017120361328 -46.14418029785156
v 252.7033081054688 142.9967498779297 -46.14418029785156
v 252.7033081054688 184.2301635742188 -46.14418029785156
v 252.7033081054688 36.49674987792969 -49.36862945556641
v 252.7033081054688 77.73017120361328 -49.36862945556641
v 252.7033081054688 142.9967498779297 -49.36862945556641
v 252.7033081054688 184.2301635742188 -49.36862945556641
v 277.9794921875 5.497618198394775 -46.14418029785156
v 277.9794921875 205.4680023193359 -46.14418029785156
v 277.9794921875 5.497618198394775 -49.36862945556641
v 277.9794921875 205.4680023193359 -49.36862945556641
vt 0.08524893224239349 0.5193747282028198
vt 0.08524893224239349 0.99853515625
vt 0.7705581188201904 0.5193747282028198
vt 0.7705581188201904 0.99853515625
vt 0.1019536629319191 0.5193747282028198
vt 0.18829445540905 0.7122653722763062
vt 0.18829445540905 0.5193747282028198
vt 0.1019536629319191 0.7122653722763062
vt 0.709936797618866 0.6924552917480469
vt 0.709936797618866 0.5936535596847534
vt 0.5984132885932922 0.5936535596847534
vt 0.5984132885932922 0.6924552917480469
vt 0.709936797618866 0.9476459622383118
vt 0.709936797618866 0.8488442301750183
vt 0.5984132885932922 0.8488442301750183
vt 0.5984132885932922 0.9476459622383118
vt 0.08524893224239349 0.03874951601028442
vt 0.08524893224239349 0.5179098844528198
vt 0.7705581188201904 0.03874951601028442
vt 0.7705581188201904 0.5179098844528198
vt 0.1019536629319191 0.03874951601028442
vt 0.18829445540905 0.2316401302814484
vt 0.18829445540905 0.03874951601028442
vt 0.1019536629319191 0.2316401302814484
vt 0.709936797618866 0.2118300348520279
vt 0.709936797618866 0.1130282953381538
vt 0.5984132885932922 0.1130282953381538
vt 0.5984132885932922 0.2118300348520279
vt 0.709936797618866 0.4670207500457764
vt 0.709936797618866 0.3682189881801605
vt 0.5984132885932922 0.3682189881801605
vt 0.5984132885932922 0.4670207500457764
vt 0.08524893224239349 0.01403496228158474
vt 0.6687571406364441 0.00774990301579237
vt 0.6687571406364441 0.01403496228158474
vt 0.08524893224239349 0.00774990301579237
vt 0.08524893224239349 0
vt 0.08524893224239349 0.00628505926579237
vt 0.5658741593360901 0
vt 0.5658741593360901 0.00628505926579237
vt 0.08378408849239349 0
vt 0.07749903202056885 0
vt 0.08378408849239349 0.6867740154266357
vt 0.07749903202056885 0.6867740154266357
vt 0.08524893224239349 0.03099961206316948
vt 0.08524893224239349 0.03728467226028442
vt 0.5658741593360901 0.03099961206316948
vt 0.5658741593360901 0.03728467226028442
vt 0.06053438037633896 0
vt 0.05424932017922401 0
vt 0.06053438037633896 0.01674043387174606
vt 0.05424932017922401 0.01674043387174606
vt 0.06974912434816361 0
vt 0.06974912434816361 0.1934803128242493
vt 0.07603418827056885 0
vt 0.07603418827056885 0.1934803128242493
vt 0.03099961206316948 0
vt 0.03099961206316948 0.1934803128242493
vt 0.03728467226028442 0
vt 0.03728467226028442 0.1934803128242493
vt 0.06828428059816361 0
vt 0.06199922412633896 0
vt 0.06199922412633896 0.08652535825967789
vt 0.06828428059816361 0.08652535825967789
vt 0.03874951601028442 0
vt 0.03874951601028442 0.09910379350185394
vt 0.04503457248210907 0
vt 0.04503457248210907 0.09910379350185394
vt 0 0
vt 0 0.09910379350185394
vt 0.00628505926579237 0
vt 0.00628505926579237 0.09910379350185394
vt 0.02953476831316948 0
vt 0.02324970811605454 0
vt 0.02324970811605454 0.1117619201540947
vt 0.02953476831316948 0.1117619201540947
vt 0.02178486436605454 0
vt 0.01549980603158474 0
vt 0.01549980603158474 0.1117619201540947
vt 0.02178486436605454 0.1117619201540947
vt 0.04649941623210907 0
vt 0.04649941623210907 0.09910379350185394
vt 0.05278447642922401 0
vt 0.05278447642922401 0.09910379350185394
vt 0.00774990301579237 0
vt 0.00774990301579237 0.09910379350185394
vt 0.01403496228158474 0
vt 0.01403496228158474 0.09910379350185394
vt 0.08524893224239349 0.02324970811605454
vt 0.08524893224239349 0.02953476831316948
vt 0.1970108598470688 0.02953476831316948
vt 0.1970108598470688 0.02324970811605454
vt 0.08524893224239349 0.01549980603158474
vt 0.08524893224239349 0.02178486436605454
vt 0.1970108598470688 0.02178486436605454
vt 0.1970108598470688 0.01549980603158474
vn 0 0 1
vn 0 0 1
vn 0 0 1
vn 0 0 1
vn 0 0 1
vn 0 0 1
vn 0 0 1
vn 0 0 1
vn 0 0 1
vn 0 0 1
vn 0 0 1
vn 0 0 1
vn 0 0 1
vn 0 0 1
vn 0 0 1
vn 0 0 1
vn 0 0 -1
vn 0 0 -1
vn 0 0 -1
vn 0 0 -1
vn 0 0 -1
vn 0 0 -1
vn 0 0 -1
vn 0 0 -1
vn 0 0 -1
vn 0 0 -1
vn 0 0 -1
vn 0 0 -1
vn 0 0 -1
vn 0 0 -1
vn 0 0 -1
vn 0 0 -1
vn 4.973329796129738e-17 -1 0
vn 4.973329796129738e-17 -1 0
vn 4.973329796129738e-17 -1 0
vn 4.973329796129738e-17 -1 0
vn 1 0 0
vn 1 0 0
vn 1 0 0
vn 1 0 0
vn 0 1 0
vn 0 1 0
vn 0 1 0
vn 0 1 0
vn -1 0 0
vn -1 0 0
vn -1 0 0
vn -1 0 0
vn 4.973329796129738e-17 -1 0
vn 4.973329796129738e-17 -1 0
vn 4.973329796129738e-17 -1 0
vn 4.973329796129738e-17 -1 0
vn -1 0 0
vn -1 0 0
vn -1 0 0
vn -1 0 0
vn 1 0 0
vn 1 0 0
vn 1 0 0
vn 1 0 0
vn -1.110223024625157e-16 -1 0
vn 0 -1 0
vn 0 -1 0
vn 0 -1 0
vn -1 0 0
vn -1 0 0
vn -1 0 0
vn -1 0 0
vn 1 0 0
vn 1 0 0
vn 1 0 0
vn 1 0 0
vn 5.551115123125783e-17 1 0
vn 0 1 0
vn 0 1 0
vn 0 1 0
vn 0 -1 0
vn 0 -1 0
vn 0 -1 0
vn 0 -1 0
vn -1 0 0
vn -1 0 0
vn -1 0 0
vn -1 0 0
vn 1 0 0
vn 1 0 0
vn 1 0 0
vn 1 0 0
vn 0 1 0
vn 2.220446049250313e-16 1 0
vn 0 1 0
vn 0 1 0
vn 2.220446049250313e-16 -1 0
vn 4.440892098500626e-16 -1 0
vn 0 -1 0
vn 0 -1 0
f 5/5/5 6/8/8 1/1/1
f 29/3/3 13/11/11 9/7/7
f 10/6/6 9/7/7 13/11/11 14/12/12
f 10/6/6 2/2/2 6/8/8
f 1/1/1 6/8/8 2/2/2
f 15/15/15 2/2/2 10/6/6
f 14/12/12 15/15/15 10/6/6
f 15/15/15 14/12/12 22/9/9 23/14/14
f 29/3/3 30/4/4 23/14/14 22/9/9
f 21/10/10 29/3/3 22/9/9
f 29/3/3 21/10/10 13/11/11
f 16/16/16 24/13/13 30/4/4
f 23/14/14 30/4/4 24/13/13
f 2/2/2 16/16/16 30/4/4
f 2/2/2 15/15/15 16/16/16
f 7/21/21 3/17/17 8/24/24
f 31/19/19 11/23/23 17/27/27
f 11/23/23 12/22/22 17/27/27
f 12/22/22 8/24/24 4/18/18
f 3/17/17 4/18/18 8/24/24
f 19/31/31 12/22/22 4/18/18
f 12/22/22 18/28/28 17/27/27
f 18/28/28 12/22/22 19/31/31
f 19/31/31 27/30/30 26/25/25 18/28/28
f 31/19/19 26/25/25 27/30/30 32/20/20
f 25/26/26 26/25/25 31/19/19
f 31/19/19 17/27/27 25/26/26
f 20/32/32 32/20/20 28/29/29
f 27/30/30 28/29/29 32/20/20
f 4/18/18 32/20/20 20/32/32
f 4/18/18 20/32/32 19/31/31
f 9/33/33 11/36/36 31/34/34 29/35/35
f 29/38/38 31/37/37 32/39/39 30/40/40
f 30/42/42 32/41/41 4/43/43 2/44/44
f 2/46/46 4/45/45 3/47/47 1/48/48
f 1/50/50 3/49/49 7/51/51 5/52/52
f 10/54/54 12/56/56 11/55/55 9/53/53
f 8/58/58 6/60/60 5/59/59 7/57/57
f 8/62/62 12/63/63 10/64/64 6/61/61
f 22/66/66 26/68/68 25/67/67 21/65/65
f 18/70/70 14/72/72 13/71/71 17/69/69
f 17/74/74 13/73/73 21/76/76 25/75/75
f 18/78/78 26/79/79 22/80/80 14/77/77
f 24/82/82 28/84/84 27/83/83 23/81/81
f 20/86/86 16/88/88 15/87/87 19/85/85
f 19/90/90 15/89/89 23/92/92 27/91/91
f 20/94/94 28/95/95 24/96/96 16/93/93
