# Rhino

o object_1
v 279.2033081054688 5.497618198394775 -48.70079803466797
v 279.2033081054688 204.9976196289063 -48.70079803466797
v 279.2033081054688 36.49674987792969 -152.3686218261719
v 279.2033081054688 77.73017120361328 -152.3686218261719
v 279.2033081054688 142.9967498779297 -152.3686218261719
v 279.2033081054688 184.2301635742188 -152.3686218261719
v 279.2033081054688 36.49674987792969 -198.8686218261719
v 279.2033081054688 77.73017120361328 -198.8686218261719
v 279.2033081054688 142.9967498779297 -198.8686218261719
v 279.2033081054688 184.2301635742188 -198.8686218261719
v 279.2033081054688 38.00017166137695 -280.56396484375
v 279.2033081054688 79.23358917236328 -280.56396484375
v 279.2033081054688 144.5001678466797 -280.56396484375
v 279.2033081054688 185.7335968017578 -280.56396484375
v 279.2033081054688 38.00017166137695 -327.06396484375
v 279.2033081054688 79.23358917236328 -327.06396484375
v 279.2033081054688 144.5001678466797 -327.06396484375
v 279.2033081054688 185.7335968017578 -327.06396484375
v 279.2033081054688 5.497618198394775 -434.0364685058594
v 279.2033081054688 204.9976196289063 -434.0364685058594
v 282.2747192382813 5.497618198394775 -48.70079803466797
v 282.2747192382813 204.9976196289063 -48.70079803466797
v 282.2747192382813 36.49674987792969 -152.3686218261719
v 282.2747192382813 77.73017120361328 -152.3686218261719
v 282.2747192382813 142.9967498779297 -152.3686218261719
v 282.2747192382813 184.2301635742188 -152.3686218261719
v 282.2747192382813 36.49674987792969 -198.8686218261719
v 282.2747192382813 77.73017120361328 -198.8686218261719
v 282.2747192382813 142.9967498779297 -198.8686218261719
v 282.2747192382813 184.2301635742188 -198.8686218261719
v 282.2747192382813 38.00017166137695 -280.56396484375
v 282.2747192382813 79.23358917236328 -280.56396484375
v 282.2747192382813 144.5001678466797 -280.56396484375
v 282.2747192382813 185.7335968017578 -280.56396484375
v 282.2747192382813 38.00017166137695 -327.06396484375
v 282.2747192382813 79.23358917236328 -327.06396484375
v 282.2747192382813 144.5001678466797 -327.06396484375
v 282.2747192382813 185.7335968017578 -327.06396484375
v 282.2747192382813 5.497618198394775 -434.0364685058594
v 282.2747192382813 204.9976196289063 -434.0364685058594
vt 0.9310750365257263 0
vt 0.9310750365257263 0.4619812965393066
vt 0.9381874799728394 0
vt 0.9381874799728394 0.4619812965393066
vt 0.9224977493286133 0
vt 0.4619812965393066 0
vt 0.9224977493286133 0.8923201560974121
vt 0.4619812965393066 0.8923201560974121
vt 0.8474704027175903 0.5369246006011963
vt 0.7522890567779541 0.5369246006011963
vt 0.7522890567779541 0.6446043848991394
vt 0.8474704027175903 0.6446043848991394
vt 0.6016308069229126 0.5369246006011963
vt 0.5064494609832764 0.5369246006011963
vt 0.5064494609832764 0.6446043848991394
vt 0.6016308069229126 0.6446043848991394
vt 0.6051012277603149 0.2400631606578827
vt 0.5099198818206787 0.2400631606578827
vt 0.5099198818206787 0.3477430045604706
vt 0.6051012277603149 0.3477430045604706
vt 0.8509408235549927 0.2400631606578827
vt 0.7557595372200012 0.2400631606578827
vt 0.7557595372200012 0.3477430045604706
vt 0.8509408235549927 0.3477430045604706
vt 0.9239625930786133 0
vt 0.9239625930786133 0.4619812965393066
vt 0.9310750365257263 0
vt 0.9310750365257263 0.4619812965393066
vt 0.4605164527893066 0.1076798513531685
vt 0 0.1076798513531685
vt 0.4605164527893066 0.99853515625
vt 0 0.99853515625
vt 0.2903077900409699 0.4624920189380646
vt 0.3854890763759613 0.4624920189380646
vt 0.3854890763759613 0.3549889624118805
vt 0.2903077900409699 0.3549889624118805
vt 0.04446818307042122 0.4624920189380646
vt 0.1396494805812836 0.4624920189380646
vt 0.1396494805812836 0.3549889624118805
vt 0.04446818307042122 0.3549889624118805
vt 0.04793860390782356 0.7588660717010498
vt 0.1431199014186859 0.7588660717010498
vt 0.1431199014186859 0.6513630151748657
vt 0.04793860390782356 0.6513630151748657
vt 0.2937782108783722 0.7588660717010498
vt 0.388959527015686 0.7588660717010498
vt 0.388959527015686 0.6513630151748657
vt 0.2937782108783722 0.6513630151748657
vt 0.9524124264717102 0
vt 0.9452999830245972 0
vt 0.9524124264717102 0.8923201560974121
vt 0.9452999830245972 0.8923201560974121
vt 0.9381874799728394 0
vt 0.9381874799728394 0.8923201560974121
vt 0.9452999830245972 0
vt 0.9452999830245972 0.8923201560974121
vt 0.1443691551685333 0
vt 0.1443691551685333 0.09548405557870865
vt 0.1514816135168076 0
vt 0.1514816135168076 0.09548405557870865
vt 0.1154953241348267 0
vt 0.1154953241348267 0.09548405557870865
vt 0.1226077750325203 0
vt 0.1226077750325203 0.09548405557870865
vt 0.3247245848178864 0
vt 0.3176121413707733 0.1062150076031685
vt 0.3247245848178864 0.1062150076031685
vt 0.3176121413707733 0
vt 0.2958507537841797 0
vt 0.2887383103370667 0.1062150076031685
vt 0.2958507537841797 0.1062150076031685
vt 0.2887383103370667 0
vt 0.02887383103370667 0
vt 0.02887383103370667 0.09548405557870865
vt 0.0359862856566906 0
vt 0.0359862856566906 0.09548405557870865
vt 0 0
vt 0 0.09548405557870865
vt 0.007112453691661358 0
vt 0.007112453691661358 0.09548405557870865
vt 0.3824722468852997 0
vt 0.3753598034381867 0
vt 0.3753598034381867 0.1062150076031685
vt 0.3824722468852997 0.1062150076031685
vt 0.353598415851593 0
vt 0.34648597240448 0
vt 0.34648597240448 0.1062150076031685
vt 0.353598415851593 0.1062150076031685
vt 0.2021168172359467 0.09548405557870865
vt 0.2092292755842209 0
vt 0.2092292755842209 0.09548405557870865
vt 0.2021168172359467 0
vt 0.08662149310112 0
vt 0.09373394399881363 0.09548405557870865
vt 0.09373394399881363 0
vt 0.08662149310112 0.09548405557870865
vt 0.4331074655056 0
vt 0.440219908952713 0.1062150076031685
vt 0.440219908952713 0
vt 0.4331074655056 0.1062150076031685
vt 0.4042336344718933 0
vt 0.4113460779190064 0.1062150076031685
vt 0.4113460779190064 0
vt 0.4042336344718933 0.1062150076031685
vt 0.17324298620224 0
vt 0.17324298620224 0.09548405557870865
vt 0.1803554445505142 0
vt 0.1803554445505142 0.09548405557870865
vt 0.05774766206741333 0
vt 0.05774766206741333 0.09548405557870865
vt 0.06486011296510696 0
vt 0.06486011296510696 0.09548405557870865
vt 0.266976922750473 0.1062150076031685
vt 0.25986447930336 0.1062150076031685
vt 0.266976922750473 0
vt 0.25986447930336 0
vt 0.2381031066179276 0.1062150076031685
vt 0.2309906482696533 0.1062150076031685
vt 0.2381031066179276 0
vt 0.2309906482696533 0
vn 0 0 1
vn 0 0 1
vn 0 0 1
vn 0 0 1
vn -1 0 0
vn -1 0 0
vn -1 0 0
vn -1 0 0
vn -1 0 -5.531873578588819e-17
vn -1 0 -1.106374715717764e-16
vn -1 0 -1.106374715717764e-16
vn -1 0 -5.531873578588819e-17
vn -1 0 -2.212749431435528e-16
vn -1 0 0
vn -1 0 0
vn -1 0 -2.212749431435528e-16
vn -1 0 -2.212749431435528e-16
vn -1 0 0
vn -1 0 0
vn -1 0 -2.212749431435528e-16
vn -1 0 -1.106374715717764e-16
vn -1 0 2.212749431435528e-16
vn -1 0 2.212749431435528e-16
vn -1 0 -1.106374715717764e-16
vn 0 0 -1
vn 0 0 -1
vn 0 0 -1
vn 0 0 -1
vn 1 0 0
vn 1 0 0
vn 1 0 0
vn 1 0 0
vn 1 0 2.212749431435528e-16
vn 1 0 -1.659562139751095e-16
vn 1 0 -1.659562139751095e-16
vn 1 0 2.212749431435528e-16
vn 1 0 0
vn 1 0 0
vn 1 0 0
vn 1 0 0
vn 1 0 0
vn 1 0 2.212749431435528e-16
vn 1 0 2.212749431435528e-16
vn 1 0 0
vn 1 0 1.106374715717764e-16
vn 1 0 2.212749431435528e-16
vn 1 0 2.212749431435528e-16
vn 1 0 1.106374715717764e-16
vn 0 -1 0
vn 0 -1 0
vn 0 -1 0
vn 0 -1 0
vn 0 1 0
vn 0 1 0
vn 0 1 0
vn 0 1 0
vn 0 0 -1
vn 0 0 -1
vn 0 0 -1
vn 0 0 -1
vn 0 0 1
vn 0 0 1
vn 0 0 1
vn 0 0 1
vn 0 1 -2.775557561562891e-17
vn 0 1 -5.551115123125783e-17
vn 0 1 0
vn 0 1 0
vn 0 -1 -1.110223024625157e-16
vn 0 -1 0
vn 0 -1 0
vn 0 -1 0
vn 0 0 -1
vn 0 0 -1
vn 0 0 -1
vn 0 0 -1
vn 0 0 1
vn 0 0 1
vn 0 0 1
vn 0 0 1
vn 0 1 1.110223024625157e-16
vn 0 1 0
vn 0 1 0
vn 0 1 0
vn 0 -1 0
vn 0 -1 0
vn 0 -1 0
vn 0 -1 0
vn 1.795863584659043e-15 0 -1
vn 1.795863584659043e-15 0 -1
vn 1.795863584659043e-15 0 -1
vn 1.795863584659043e-15 0 -1
vn 0 0 1
vn 0 0 1
vn 0 0 1
vn 0 0 1
vn 0 1 0
vn 0 1 1.110223024625157e-16
vn 0 1 0
vn 0 1 0
vn 0 -1 0
vn 0 -1 -1.110223024625157e-16
vn 0 -1 0
vn 0 -1 0
vn 1.795863584659043e-15 0 -1
vn 1.795863584659043e-15 0 -1
vn 1.795863584659043e-15 0 -1
vn 1.795863584659043e-15 0 -1
vn 0 0 1
vn 0 0 1
vn 0 0 1
vn 0 0 1
vn 0 1 -2.775557561562891e-17
vn 0 1 0
vn 0 1 0
vn 0 1 0
vn 0 -1 -1.110223024625157e-16
vn 0 -1 0
vn 0 -1 0
vn 0 -1 0
f 22/2/2 2/4/4 1/3/3 21/1/1
f 4/22/22 3/21/21 1/5/5
f 7/24/24 1/5/5 3/21/21
f 8/23/23 12/10/10 11/9/9 7/24/24
f 4/22/22 5/17/17 9/20/20 8/23/23
f 7/24/24 19/7/7 1/5/5
f 2/6/6 4/22/22 1/5/5
f 6/18/18 5/17/17 2/6/6
f 4/22/22 2/6/6 5/17/17
f 10/19/19 14/14/14 13/13/13 9/20/20
f 2/6/6 10/19/19 6/18/18
f 14/14/14 10/19/19 2/6/6
f 9/20/20 13/13/13 12/10/10 8/23/23
f 16/11/11 19/7/7 15/12/12
f 11/9/9 15/12/12 19/7/7
f 19/7/7 16/11/11 17/16/16 20/8/8
f 19/7/7 7/24/24 11/9/9
f 16/11/11 12/10/10 13/13/13 17/16/16
f 18/15/15 20/8/8 17/16/16
f 14/14/14 20/8/8 18/15/15
f 2/6/6 20/8/8 14/14/14
f 20/26/26 40/28/28 39/27/27 19/25/25
f 36/36/36 35/35/35 39/29/29
f 31/34/34 39/29/29 35/35/35
f 32/33/33 28/48/48 27/47/47 31/34/34
f 32/33/33 36/36/36 37/39/39 33/38/38
f 31/34/34 27/47/47 39/29/29
f 40/30/30 37/39/39 36/36/36 39/29/29
f 38/40/40 37/39/39 40/30/30
f 34/37/37 30/44/44 29/43/43 33/38/38
f 40/30/30 34/37/37 38/40/40
f 22/32/32 34/37/37 40/30/30
f 33/38/38 29/43/43 28/48/48 32/33/33
f 24/45/45 21/31/31 23/46/46
f 27/47/47 23/46/46 21/31/31
f 21/31/31 24/45/45 25/42/42 22/32/32
f 21/31/31 39/29/29 27/47/47
f 24/45/45 28/48/48 29/43/43 25/42/42
f 26/41/41 22/32/32 25/42/42
f 30/44/44 22/32/32 26/41/41
f 34/37/37 22/32/32 30/44/44
f 1/50/50 19/52/52 39/51/51 21/49/49
f 40/54/54 20/56/56 2/55/55 22/53/53
f 12/58/58 32/60/60 31/59/59 11/57/57
f 36/62/62 16/64/64 15/63/63 35/61/61
f 35/68/68 15/65/65 11/67/67 31/66/66
f 36/72/72 32/70/70 12/71/71 16/69/69
f 14/74/74 34/76/76 33/75/75 13/73/73
f 38/78/78 18/80/80 17/79/79 37/77/77
f 37/82/82 17/81/81 13/84/84 33/83/83
f 38/86/86 34/87/87 14/88/88 18/85/85
f 6/89/89 26/91/91 25/90/90 5/92/92
f 30/96/96 10/94/94 9/95/95 29/93/93
f 29/97/97 9/99/99 5/98/98 25/100/100
f 30/101/101 26/104/104 6/102/102 10/103/103
f 4/106/106 24/108/108 23/107/107 3/105/105
f 28/110/110 8/112/112 7/111/111 27/109/109
f 27/116/116 7/115/115 3/113/113 23/114/114
f 28/120/120 24/118/118 4/117/117 8/119/119
