# Rhino

o object_1
v -11.86810302734375 5.497618198394775 -48.70079803466797
v -11.86810302734375 204.9976196289063 -48.70079803466797
v -11.86810302734375 36.49674987792969 -171.8686218261719
v -11.86810302734375 77.73017120361328 -171.8686218261719
v -11.86810302734375 142.9967498779297 -171.8686218261719
v -11.86810302734375 184.2301635742188 -171.8686218261719
v -11.86810302734375 36.49674987792969 -218.3686218261719
v -11.86810302734375 77.73017120361328 -218.3686218261719
v -11.86810302734375 142.9967498779297 -218.3686218261719
v -11.86810302734375 184.2301635742188 -218.3686218261719
v -11.86810302734375 36.49674987792969 -283.8686218261719
v -11.86810302734375 77.73017120361328 -283.8686218261719
v -11.86810302734375 142.9967498779297 -283.8686218261719
v -11.86810302734375 184.2301635742188 -283.8686218261719
v -11.86810302734375 36.49674987792969 -330.3686218261719
v -11.86810302734375 77.73017120361328 -330.3686218261719
v -11.86810302734375 142.9967498779297 -330.3686218261719
v -11.86810302734375 184.2301635742188 -330.3686218261719
v -11.86810302734375 5.497618198394775 -434.0364685058594
v -11.86810302734375 204.9976196289063 -434.0364685058594
v -8.79669189453125 5.497618198394775 -48.70079803466797
v -8.79669189453125 204.9976196289063 -48.70079803466797
v -8.79669189453125 36.49674987792969 -171.8686218261719
v -8.79669189453125 77.73017120361328 -171.8686218261719
v -8.79669189453125 142.9967498779297 -171.8686218261719
v -8.79669189453125 184.2301635742188 -171.8686218261719
v -8.79669189453125 36.49674987792969 -218.3686218261719
v -8.79669189453125 77.73017120361328 -218.3686218261719
v -8.79669189453125 142.9967498779297 -218.3686218261719
v -8.79669189453125 184.2301635742188 -218.3686218261719
v -8.79669189453125 36.49674987792969 -283.8686218261719
v -8.79669189453125 77.73017120361328 -283.8686218261719
v -8.79669189453125 142.9967498779297 -283.8686218261719
v -8.79669189453125 184.2301635742188 -283.8686218261719
v -8.79669189453125 36.49674987792969 -330.3686218261719
v -8.79669189453125 77.73017120361328 -330.3686218261719
v -8.79669189453125 142.9967498779297 -330.3686218261719
v -8.79669189453125 184.2301635742188 -330.3686218261719
v -8.79669189453125 5.497618198394775 -434.0364685058594
v -8.79669189453125 204.9976196289063 -434.0364685058594
vt 0.9310750365257263 0
vt 0.9310750365257263 0.4619812965393066
vt 0.9381874799728394 0
vt 0.9381874799728394 0.4619812965393066
vt 0.9224977493286133 0
vt 0.4619812965393066 0
vt 0.9224977493286133 0.8923201560974121
vt 0.4619812965393066 0.8923201560974121
vt 0.8509408235549927 0.5445771217346191
vt 0.7557595372200012 0.5445771217346191
vt 0.7557595372200012 0.652256965637207
vt 0.8509408235549927 0.652256965637207
vt 0.8509408235549927 0.2852192223072052
vt 0.7557595372200012 0.2852192223072052
vt 0.7557595372200012 0.3928990960121155
vt 0.8509408235549927 0.3928990960121155
vt 0.6051012277603149 0.2852192223072052
vt 0.5099198818206787 0.2852192223072052
vt 0.5099198818206787 0.3928990960121155
vt 0.6051012277603149 0.3928990960121155
vt 0.6051012277603149 0.5445771217346191
vt 0.5099198818206787 0.5445771217346191
vt 0.5099198818206787 0.652256965637207
vt 0.6051012277603149 0.652256965637207
vt 0.9239625930786133 0
vt 0.9239625930786133 0.4619812965393066
vt 0.9310750365257263 0
vt 0.9310750365257263 0.4619812965393066
vt 0.4605164527893066 0.1076798513531685
vt 0 0.1076798513531685
vt 0.4605164527893066 0.99853515625
vt 0 0.99853515625
vt 0.2937782108783722 0.4548520147800446
vt 0.388959527015686 0.4548520147800446
vt 0.388959527015686 0.3473489284515381
vt 0.2937782108783722 0.3473489284515381
vt 0.2937782108783722 0.7137841582298279
vt 0.388959527015686 0.7137841582298279
vt 0.388959527015686 0.606281042098999
vt 0.2937782108783722 0.606281042098999
vt 0.04793860390782356 0.7137841582298279
vt 0.1431199014186859 0.7137841582298279
vt 0.1431199014186859 0.606281042098999
vt 0.04793860390782356 0.606281042098999
vt 0.04793860390782356 0.4548520147800446
vt 0.1431199014186859 0.4548520147800446
vt 0.1431199014186859 0.3473489284515381
vt 0.04793860390782356 0.3473489284515381
vt 0.9524124264717102 0
vt 0.9452999830245972 0
vt 0.9524124264717102 0.8923201560974121
vt 0.9452999830245972 0.8923201560974121
vt 0.9381874799728394 0
vt 0.9381874799728394 0.8923201560974121
vt 0.9452999830245972 0
vt 0.9452999830245972 0.8923201560974121
vt 0.17324298620224 0
vt 0.17324298620224 0.09548405557870865
vt 0.1803554445505142 0
vt 0.1803554445505142 0.09548405557870865
vt 0.08662149310112 0
vt 0.08662149310112 0.09548405557870865
vt 0.09373394399881363 0
vt 0.09373394399881363 0.09548405557870865
vt 0.3247245848178864 0
vt 0.3176121413707733 0.1062150076031685
vt 0.3247245848178864 0.1062150076031685
vt 0.3176121413707733 0
vt 0.2958507537841797 0
vt 0.2887383103370667 0.1062150076031685
vt 0.2958507537841797 0.1062150076031685
vt 0.2887383103370667 0
vt 0.02887383103370667 0
vt 0.02887383103370667 0.09548405557870865
vt 0.0359862856566906 0
vt 0.0359862856566906 0.09548405557870865
vt 0 0
vt 0 0.09548405557870865
vt 0.007112453691661358 0
vt 0.007112453691661358 0.09548405557870865
vt 0.3753598034381867 0
vt 0.3824722468852997 0.1062150076031685
vt 0.3753598034381867 0.1062150076031685
vt 0.3824722468852997 0
vt 0.34648597240448 0
vt 0.353598415851593 0.1062150076031685
vt 0.34648597240448 0.1062150076031685
vt 0.353598415851593 0
vt 0.2021168172359467 0
vt 0.2092292755842209 0
vt 0.2092292755842209 0.09548405557870865
vt 0.2021168172359467 0.09548405557870865
vt 0.05774766206741333 0
vt 0.05774766206741333 0.09548405557870865
vt 0.06486011296510696 0
vt 0.06486011296510696 0.09548405557870865
vt 0.440219908952713 0.1062150076031685
vt 0.4331074655056 0.1062150076031685
vt 0.440219908952713 0
vt 0.4331074655056 0
vt 0.4113460779190064 0.1062150076031685
vt 0.4042336344718933 0.1062150076031685
vt 0.4113460779190064 0
vt 0.4042336344718933 0
vt 0.1443691551685333 0
vt 0.1443691551685333 0.09548405557870865
vt 0.1514816135168076 0
vt 0.1514816135168076 0.09548405557870865
vt 0.1154953241348267 0
vt 0.1154953241348267 0.09548405557870865
vt 0.1226077750325203 0
vt 0.1226077750325203 0.09548405557870865
vt 0.266976922750473 0
vt 0.25986447930336 0.1062150076031685
vt 0.266976922750473 0.1062150076031685
vt 0.25986447930336 0
vt 0.2381031066179276 0
vt 0.2309906482696533 0.1062150076031685
vt 0.2381031066179276 0.1062150076031685
vt 0.2309906482696533 0
vn 0 0 1
vn 0 0 1
vn 0 0 1
vn 0 0 1
vn 1 0 0
vn 1 0 0
vn 1 0 0
vn 1 0 0
vn 1 0 5.531873578588819e-17
vn 1 0 0
vn 1 0 0
vn 1 0 5.531873578588819e-17
vn 1 0 5.531873578588819e-17
vn 1 0 0
vn 1 0 0
vn 1 0 5.531873578588819e-17
vn 1 0 -2.212749431435528e-16
vn 1 0 0
vn 1 0 0
vn 1 0 -2.212749431435528e-16
vn 1 0 -2.212749431435528e-16
vn 1 0 0
vn 1 0 0
vn 1 0 -2.212749431435528e-16
vn 0 0 -1
vn 0 0 -1
vn 0 0 -1
vn 0 0 -1
vn -1 0 0
vn -1 0 0
vn -1 0 0
vn -1 0 0
vn -1 0 -1.106374715717764e-16
vn -1 0 -5.531873578588819e-17
vn -1 0 -5.531873578588819e-17
vn -1 0 -1.106374715717764e-16
vn -1 0 -1.106374715717764e-16
vn -1 0 -5.531873578588819e-17
vn -1 0 -5.531873578588819e-17
vn -1 0 -1.106374715717764e-16
vn -1 0 -2.212749431435528e-16
vn -1 0 0
vn -1 0 0
vn -1 0 -2.212749431435528e-16
vn -1 0 -2.212749431435528e-16
vn -1 0 0
vn -1 0 0
vn -1 0 -2.212749431435528e-16
vn 0 -1 0
vn 0 -1 0
vn 0 -1 0
vn 0 -1 0
vn 0 1 0
vn 0 1 0
vn 0 1 0
vn 0 1 0
vn 0 0 -1
vn 0 0 -1
vn 0 0 -1
vn 0 0 -1
vn 0 0 1
vn 0 0 1
vn 0 0 1
vn 0 0 1
vn 0 1 -2.775557561562891e-17
vn 0 1 -5.551115123125783e-17
vn 0 1 0
vn 0 1 0
vn 0 -1 -6.938893903907228e-17
vn 0 -1 5.551115123125783e-17
vn 0 -1 0
vn 0 -1 0
vn 0 0 -1
vn 0 0 -1
vn 0 0 -1
vn 0 0 -1
vn 0 0 1
vn 0 0 1
vn 0 0 1
vn 0 0 1
vn 0 1 2.775557561562891e-17
vn -3.697785493223493e-32 1 2.081668171172169e-17
vn 0 1 0
vn 0 1 0
vn 0 -1 5.551115123125783e-17
vn -9.860761315262648e-32 -1 5.551115123125783e-17
vn 0 -1 0
vn 0 -1 0
vn 0 0 -1
vn 0 0 -1
vn 0 0 -1
vn 0 0 -1
vn 0 0 1
vn 0 0 1
vn 0 0 1
vn 0 0 1
vn 1.479114197289397e-31 1 -8.326672684688674e-17
vn 0 1 0
vn 0 1 0
vn 0 1 0
vn 1.97215226305253e-31 -1 -1.110223024625157e-16
vn 0 -1 0
vn 0 -1 0
vn 0 -1 0
vn 0 0 -1
vn 0 0 -1
vn 0 0 -1
vn 0 0 -1
vn 0 0 1
vn 0 0 1
vn 0 0 1
vn 0 0 1
vn 0 1 -8.326672684688674e-17
vn 0 1 0
vn 0 1 0
vn 0 1 0
vn 0 -1 1.110223024625157e-16
vn 0 -1 0
vn 0 -1 0
vn 0 -1 0
f 2/2/2 1/1/1 21/3/3 22/4/4
f 24/14/14 21/5/5 23/13/13
f 27/16/16 23/13/13 21/5/5
f 28/15/15 27/16/16 31/9/9 32/10/10
f 28/15/15 29/20/20 25/17/17 24/14/14
f 21/5/5 39/7/7 31/9/9 27/16/16
f 22/6/6 21/5/5 24/14/14 25/17/17
f 26/18/18 22/6/6 25/17/17
f 30/19/19 29/20/20 33/21/21 34/22/22
f 22/6/6 26/18/18 30/19/19
f 40/8/8 22/6/6 30/19/19 34/22/22
f 29/20/20 28/15/15 32/10/10 33/21/21
f 36/11/11 35/12/12 39/7/7
f 31/9/9 39/7/7 35/12/12
f 39/7/7 40/8/8 37/24/24 36/11/11
f 36/11/11 37/24/24 33/21/21 32/10/10
f 38/23/23 37/24/24 40/8/8
f 34/22/22 38/23/23 40/8/8
f 40/26/26 39/25/25 19/27/27 20/28/28
f 16/36/36 19/29/29 15/35/35
f 11/34/34 15/35/35 19/29/29
f 12/33/33 11/34/34 7/39/39 8/40/40
f 12/33/33 13/46/46 17/47/47 16/36/36
f 11/34/34 19/29/29 7/39/39
f 20/30/30 19/29/29 16/36/36 17/47/47
f 18/48/48 20/30/30 17/47/47
f 14/45/45 13/46/46 9/43/43 10/44/44
f 20/30/30 18/48/48 14/45/45
f 10/44/44 20/30/30 14/45/45
f 13/46/46 12/33/33 8/40/40 9/43/43
f 4/37/37 3/38/38 1/31/31
f 7/39/39 1/31/31 3/38/38
f 2/32/32 4/37/37 1/31/31
f 1/31/31 7/39/39 19/29/29
f 8/40/40 4/37/37 5/42/42 9/43/43
f 6/41/41 5/42/42 2/32/32
f 4/37/37 2/32/32 5/42/42
f 10/44/44 6/41/41 2/32/32
f 20/30/30 10/44/44 2/32/32
f 21/50/50 1/49/49 19/51/51 39/52/52
f 20/54/54 2/53/53 22/55/55 40/56/56
f 12/58/58 32/60/60 31/59/59 11/57/57
f 36/62/62 16/64/64 15/63/63 35/61/61
f 35/68/68 15/65/65 11/67/67 31/66/66
f 36/72/72 32/70/70 12/71/71 16/69/69
f 4/74/74 24/76/76 23/75/75 3/73/73
f 28/78/78 8/80/80 7/79/79 27/77/77
f 27/81/81 7/84/84 3/82/82 23/83/83
f 28/85/85 24/87/87 4/86/86 8/88/88
f 6/92/92 26/91/91 25/90/90 5/89/89
f 30/94/94 10/96/96 9/95/95 29/93/93
f 29/100/100 9/99/99 5/97/97 25/98/98
f 30/104/104 26/102/102 6/101/101 10/103/103
f 14/106/106 34/108/108 33/107/107 13/105/105
f 38/110/110 18/112/112 17/111/111 37/109/109
f 37/116/116 17/113/113 13/115/115 33/114/114
f 38/120/120 34/118/118 14/119/119 18/117/117
